<svg width="23" height="17" viewBox="0 0 23 17" fill="none" xmlns="http://www.w3.org/2000/svg">
<path fill-rule="evenodd" clip-rule="evenodd" d="M20.4662 0C21.5971 0 22.5139 0.917964 22.5139 2.05301V14.157C22.5139 15.2908 21.5964 16.21 20.4662 16.21H2.04764C0.916761 16.21 0 15.292 0 14.157V2.05301C0 0.919162 0.917487 0 2.04764 0H20.4662ZM9.65265 9.26879L2.36911 3.48806C2.19139 3.34701 2.04672 3.41502 2.04672 3.64055V13.7497C2.04672 13.9776 2.23053 14.1581 2.45728 14.1581H20.0566C20.2849 14.1581 20.4672 13.9753 20.4672 13.7497V3.64055C20.4672 3.41271 20.3228 3.34675 20.1448 3.48806L12.8612 9.26879C11.9758 9.97153 10.5387 9.97201 9.65265 9.26879ZM18.2456 2.0519H4.26829C4.04413 2.0519 3.99937 2.16488 4.17498 2.30426L10.7771 7.54419C11.0435 7.75557 11.4718 7.75451 11.7368 7.54419L18.3389 2.30426C18.5157 2.16398 18.4727 2.0519 18.2456 2.0519Z" fill="white"/>
</svg>
