<svg width="16" height="17" viewBox="0 0 16 17" fill="none" xmlns="http://www.w3.org/2000/svg">
<path fill-rule="evenodd" clip-rule="evenodd" d="M0.0577385 7.80324V8.97555C0.0577385 10.9852 -0.0461908 13.274 0.941137 14.6696C1.92846 16.0652 3.17562 16.5118 5.41009 16.5118H9.82709C11.438 16.5118 12.7891 16.3444 13.9323 15.1721C13.9843 15.1162 14.0362 15.0604 14.0882 15.0046C15.0755 13.7206 15.1794 12.4367 15.1794 10.7619V6.12851C15.1794 4.11883 14.9196 2.33245 13.3607 1.16013C12.6851 0.657715 11.8537 0.434418 10.8664 0.378594C9.56726 0.266945 5.20224 0.266945 3.95509 0.434418C3.17562 0.546067 2.24025 0.825189 1.66864 1.38343C1.56471 1.49508 1.51275 1.55091 1.40882 1.60673C0.837208 2.16497 0.369526 3.00234 0.161668 4.17465C-0.0461908 5.29114 0.00577385 6.7984 0.00577385 7.91489L0.0577385 7.80324ZM1.40882 7.57994C1.40882 8.8639 1.35685 10.9852 1.46078 12.1575C1.66864 14.0556 2.65597 14.8929 4.31884 15.0604C5.41009 15.1721 9.93102 15.1721 11.0223 15.0604C11.9576 14.9488 12.5812 14.6696 13.0489 14.1672C13.5685 13.5531 13.7764 12.8274 13.8284 11.9342C13.9323 10.7061 13.9323 6.29598 13.8284 5.01202C13.7764 4.11883 13.5685 3.39311 13.0489 2.77904C12.6332 2.27662 11.9576 1.94168 11.0223 1.88585C9.93102 1.7742 5.51402 1.7742 4.3708 1.88585C3.43544 1.94168 2.86383 2.2208 2.34418 2.72322C1.8765 3.16981 1.56471 3.89553 1.51275 4.78872C1.40882 5.73773 1.46078 6.74257 1.46078 7.69159L1.40882 7.57994ZM7.22886 4.2863C6.44939 4.39795 5.72188 4.7329 5.15027 5.23531C4.26687 6.07268 3.59133 7.35664 3.74723 8.91972C3.95509 11.0969 5.72188 12.8833 8.00833 12.6041C9.98298 12.3808 11.6978 10.427 11.438 8.02653C11.3341 7.13334 11.0223 6.46345 10.5546 5.79356C10.1908 5.23531 9.5153 4.7329 8.83976 4.5096C8.32011 4.34212 7.7485 4.23048 7.12493 4.2863H7.22886ZM7.28082 5.73773C5.98171 5.96103 4.89045 7.18917 5.15027 8.80808C5.35813 10.1479 6.50135 11.3202 8.00833 11.0969C9.25548 10.9294 10.3987 9.64544 10.1389 8.02653C9.93102 6.68675 8.7878 5.45861 7.28082 5.68191V5.73773ZM11.5419 3.11399C11.0742 3.16981 10.7105 3.61641 10.7624 4.17465C10.8144 4.67707 11.2301 5.12367 11.8017 5.01202C12.2694 4.95619 12.6332 4.5096 12.5812 3.95135C12.5292 3.44893 12.1135 3.05816 11.5939 3.11399H11.5419Z" fill="white"/>
</svg>
