<svg width="434" height="457" viewBox="0 0 434 457" fill="none" xmlns="http://www.w3.org/2000/svg">
<path fill-rule="evenodd" clip-rule="evenodd" d="M205.742 112.892C200.029 118.47 193.944 121.947 190.687 121.878C182.522 121.704 175.19 93.7048 178.536 81.2001C181.881 68.6954 211.368 56.6533 218.085 78.2902C220.417 85.7998 218.813 93.368 215.384 100.042L233.188 137.633L208.516 143.436L205.742 112.892Z" fill="#735A42"/>
<path fill-rule="evenodd" clip-rule="evenodd" d="M189.589 65.0958C192.715 63.7978 201.384 61.3721 202.999 60.9926C204.031 60.7499 205.204 60.7227 205.593 59.6315C205.911 58.738 205.419 57.4689 205.356 56.5334C205.284 55.4467 205.287 54.3564 205.294 53.268C205.314 50.1708 205.731 47.1307 206.615 44.1604C208.276 38.5877 211.495 33.7712 216.175 30.3085C221.342 26.4849 227.715 24.389 234.017 23.436C240.761 22.4159 247.265 23.1917 253.997 23.7781C260.411 24.3368 266.829 23.6412 272.832 21.22C278.879 18.7806 282.82 14.2649 287.354 9.79263C291.994 5.2141 297.678 1.5968 304.199 0.587298C310.287 -0.354881 316.378 0.817813 322.097 2.95285C327.449 4.95044 332.138 7.765 335.522 12.4828C339.162 17.5577 340.61 23.7272 337.966 29.5905C334.134 38.0894 324.315 42.3635 315.738 44.1854C310.777 45.2395 305.717 45.4785 300.671 44.9355C293.942 44.2111 287.7 41.7691 281.179 40.1304C278.119 39.3614 275.026 38.8662 271.873 38.7269C268.814 38.5914 265.901 38.8843 263.711 41.2282C261.394 43.7078 259.356 46.0878 256.482 47.9747C253.726 49.785 250.676 51.1521 247.458 51.8828C241.195 53.3046 234.575 52.8062 228.197 52.9294C222.996 53.0301 217.449 53.2158 212.643 55.4253C210.637 56.3474 207.768 57.9518 207.522 60.3196C220.871 59.629 229.623 74.2806 228.747 86.7533C228.275 93.4852 218.289 103.573 212.961 101.346C209.585 99.9346 210.691 96.7796 211.398 94.7022C212.753 90.7239 212.448 86.0946 207.864 84.6247C203.91 83.357 201.431 89.1586 201.361 89.1694C200.391 89.3183 191.07 86.6004 183.805 81.144C178.291 82.7906 176.576 79.3031 177.202 75.9738C177.828 72.6445 185.269 66.8898 189.589 65.0958Z" fill="#8A8B4D"/>
<path fill-rule="evenodd" clip-rule="evenodd" d="M298.055 217.033L231.639 339.791L182.341 443.277L170.782 443.776L251.167 219.056L298.055 217.033Z" fill="#735A42"/>
<path fill-rule="evenodd" clip-rule="evenodd" d="M186.42 437.374C187.471 436.859 188.765 437.28 189.21 438.363C189.992 440.266 191.032 443.075 191.102 444.689C191.214 447.295 190.562 452.331 190.562 452.331C187.539 452.462 136.23 454.676 136.23 454.676C136.23 454.676 133.81 447.766 138.348 447.011C142.887 446.256 145.886 445.676 145.886 445.676L170.62 433.344C171.125 433.093 171.737 433.307 171.974 433.818L173.751 437.653C173.751 437.653 178.061 439.441 180.702 439.327C182.287 439.259 184.725 438.205 186.42 437.374Z" fill="#E4E4E4"/>
<path fill-rule="evenodd" clip-rule="evenodd" d="M196.546 426.433L173.964 420.652C173.964 420.652 186.724 376.226 205.714 322.715C224.705 269.204 247 219.236 247 219.236L309.958 216.519C309.958 216.519 285.494 279.565 257.28 331.444C229.065 383.324 196.546 426.433 196.546 426.433Z" fill="#DB2721"/>
<path fill-rule="evenodd" clip-rule="evenodd" d="M302.758 216.83C311.329 258.591 326.678 311.755 327.979 313.36C328.847 314.43 358.786 323.046 417.798 339.207L415.741 349.508C345.899 342.489 308.99 336.297 305.015 330.934C299.053 322.888 268.244 258.625 255.669 218.862L302.758 216.83Z" fill="#735A42"/>
<path fill-rule="evenodd" clip-rule="evenodd" d="M396.958 331.279L393.268 347.885C341.55 354.679 309.599 352.762 297.414 342.134C285.23 331.506 270.095 290.468 252.009 219.02L312.044 216.429C324.079 275.055 330.71 305.583 331.938 308.012C333.165 310.442 354.839 318.198 396.958 331.279Z" fill="#FF4133"/>
<path fill-rule="evenodd" clip-rule="evenodd" d="M413.367 337.668C413.042 336.543 413.682 335.342 414.825 335.092C416.836 334.653 419.782 334.115 421.384 334.327C423.97 334.669 428.816 336.186 428.816 336.186C428.42 339.185 421.691 390.1 421.691 390.1C421.691 390.1 414.465 391.283 414.51 386.682C414.554 382.081 414.504 379.027 414.504 379.027L406.655 352.527C406.495 351.987 406.812 351.422 407.357 351.277L411.441 350.192C411.441 350.192 413.951 346.259 414.297 343.638C414.505 342.065 413.891 339.481 413.367 337.668Z" fill="#E4E4E4"/>
<path fill-rule="evenodd" clip-rule="evenodd" d="M108.7 154.544L151.109 147.927L149.167 168.204L112.225 165.048C98.3792 170.684 91.3843 172.399 91.2404 170.195C91.1191 168.336 92.4787 167.359 93.7311 166.459C94.7067 165.759 95.6172 165.105 95.7118 164.117C95.9279 161.86 90.0531 159.064 84.3641 156.649C78.6752 154.234 81.5358 152.628 83.4801 152.11C90.8029 151.664 99.2096 152.475 108.7 154.544ZM165.318 249.45L185.596 211.644L200.637 225.374L175.841 252.948C171.999 267.379 169.153 273.99 167.304 272.78C165.744 271.76 165.783 270.089 165.819 268.55C165.847 267.35 165.873 266.231 165.14 265.562C163.466 264.034 157.689 267.041 152.328 270.129C146.967 273.217 147.407 269.969 148.166 268.107C152.224 261.998 157.941 255.778 165.318 249.45Z" fill="#735A42"/>
<path fill-rule="evenodd" clip-rule="evenodd" d="M204.624 126.84C202.751 166.608 189.763 202.615 166.179 244.867L186.934 253.604C219.669 219.821 236.412 200.875 232.434 166.05C231.435 157.31 221.81 132.527 217.346 119.2L204.624 126.84Z" fill="#2026A2"/>
<path fill-rule="evenodd" clip-rule="evenodd" d="M302.545 209.542L227.188 245.566C227.188 245.566 215.529 155.377 202.197 126.061C201.744 125.065 202.739 122.452 203.656 122.293C213.716 120.555 221.735 111.354 221.735 111.354C253.311 131.495 276.369 163.853 302.545 209.542Z" fill="#F2F2F2"/>
<path fill-rule="evenodd" clip-rule="evenodd" d="M223.751 164.147C236.073 220.169 256.337 261.163 282.321 248.742L322.501 229.534C308.417 183.673 263.27 132.333 233.408 109.827C232.268 108.967 229.973 107.416 226.996 108.84L215.321 114.421C215.323 114.439 215.325 114.457 215.327 114.475C211.828 116.183 208.02 118.161 203.897 120.303C182.668 131.329 153.067 146.704 114.039 152.037L119.564 173.848C159.486 178.856 197.679 179.261 223.751 164.147Z" fill="#1F28CF"/>
<path fill-rule="evenodd" clip-rule="evenodd" d="M3.42334 294.849C6.90346 311.073 17.2314 322.958 30.6752 331.71L77.2044 307.457C63.1703 292.273 55.1266 278.98 52.9219 267.532C40.5344 259.269 27.8743 254.004 14.8641 252.589C7.98984 264.228 4.07156 278.23 3.42334 294.849V294.849Z" fill="black" stroke="black" stroke-width="0.0555585" stroke-miterlimit="2.61313" stroke-linejoin="round"/>
<path fill-rule="evenodd" clip-rule="evenodd" d="M3.42334 294.849C6.90346 311.073 17.2314 322.958 30.6752 331.71L77.2044 307.457C63.1703 292.273 55.1266 278.98 52.9219 267.532C40.5344 259.269 27.8743 254.004 14.8641 252.589C7.98984 264.228 4.07156 278.23 3.42334 294.849V294.849Z" fill="#BFBCBC"/>
<path fill-rule="evenodd" clip-rule="evenodd" d="M16.5006 310.256C16.5006 310.256 -2.8317 283.692 0.395588 240.445C0.495799 239.102 0.427873 236.774 1.51048 236.023L38.2148 210.559C38.2148 210.559 33.3116 257.956 49.6556 278.269C65.9996 298.582 40.0828 317.26 40.0828 317.26L16.501 310.256L16.5006 310.256Z" fill="#FE2F5B"/>
<path fill-rule="evenodd" clip-rule="evenodd" d="M3.42334 294.843C14.475 305.673 25.5267 310.789 36.578 313.522C35.6794 299.597 41.368 284.212 52.9219 267.526C55.1266 278.975 63.1698 292.267 77.2044 307.451L30.6752 331.703C17.2314 322.952 6.90346 311.067 3.42334 294.843V294.843ZM37.3989 319.311C37.1893 318.261 36.2601 312.919 36.51 309.143L37.3989 319.311Z" fill="#FEFEFE"/>
<path d="M37.3989 319.311C37.1893 318.261 36.2601 312.919 36.51 309.143M3.42334 294.843C14.475 305.673 25.5267 310.789 36.578 313.522C35.6794 299.597 41.368 284.212 52.9219 267.526C55.1266 278.975 63.1698 292.267 77.2044 307.451L30.6752 331.703C17.2314 322.952 6.90346 311.067 3.42334 294.843V294.843Z" stroke="black" stroke-width="2" stroke-miterlimit="2.61313" stroke-linecap="round" stroke-linejoin="round"/>
<path d="M12.7417 290.158C12.7417 290.158 21.6734 282.116 35.3382 275.778" stroke="black" stroke-width="2" stroke-miterlimit="2.61313" stroke-linecap="round" stroke-linejoin="round"/>
<path d="M17.4092 295.877C17.4092 295.877 24.5141 289.48 35.3838 284.439" stroke="black" stroke-width="2" stroke-miterlimit="2.61313" stroke-linecap="round" stroke-linejoin="round"/>
<path d="M24.6089 299.486C24.6089 299.486 28.8718 295.648 35.3935 292.624" stroke="black" stroke-width="2" stroke-miterlimit="2.61313" stroke-linecap="round" stroke-linejoin="round"/>
<path fill-rule="evenodd" clip-rule="evenodd" d="M15.8719 251.53C15.866 251.465 15.8606 251.399 15.8547 251.332C15.8505 251.285 15.8463 251.236 15.8413 251.187C14.6031 250.484 13.8937 249.455 13.3448 247.922C12.6681 246.032 13.0433 243.789 13.8991 242.018C17.4744 234.619 26.9928 237.497 25.7164 245.631C25.55 246.693 25.2183 247.688 24.6028 248.577C24.4124 248.852 24.2099 249.067 24.0116 249.286C25.3906 249.116 26.8032 249.197 27.9236 250.161C28.9659 251.059 30.662 253.783 31.1303 255.091C31.566 256.307 31.7605 258.091 31.7664 259.39C31.7756 261.268 30.9219 262.776 29.4376 263.887C28.6519 264.476 27.5785 265.013 26.7039 265.465C25.3944 266.141 24.0644 266.785 22.7302 267.41C21.3407 268.061 19.9382 268.698 18.5235 269.292C17.6384 269.664 16.3893 270.213 15.4501 270.372C13.3989 270.718 11.5741 270.47 10.2492 268.691C9.567 267.776 8.83156 265.971 8.43533 264.863C7.76656 262.996 8.40179 257.627 9.36574 255.885C10.3569 254.095 13.4144 252.543 15.8719 251.531V251.53Z" fill="#FEFEFE"/>
<path fill-rule="evenodd" clip-rule="evenodd" d="M13.8197 255.473L13.0403 255.909C11.1971 256.618 11.1333 258.331 10.9191 260.144C10.7027 261.973 10.296 263.316 11.5384 265.673C12.2814 267.082 12.5116 268.72 15.8294 267.722C16.5321 267.51 16.8864 267.269 17.2869 267.06L21.7464 265.127C24.0551 263.909 28.1209 262.376 29.0572 260.636C29.4497 259.907 29.2664 258.919 29.1759 257.999C28.9348 255.556 28.2824 254.593 26.9251 252.786C26.1737 251.785 25.9817 251.648 24.7159 251.76C23.7985 251.842 22.6798 252.035 21.8232 252.28C20.6684 253.048 18.7837 253.685 18.8496 253.594L18.6877 253.156L13.8202 255.474L13.8197 255.473Z" fill="url(#paint0_linear)"/>
<path fill-rule="evenodd" clip-rule="evenodd" d="M15.6502 246.347L15.8238 247.404C16.4435 249.098 17.3068 248.941 18.0762 249.546L19.1576 249.306L21.3655 248.515C22.6184 247.267 23.3551 246.145 23.3232 244.2C23.309 243.317 23.1446 242.405 22.5073 241.569C19.7064 237.897 14.6996 242.71 15.6506 246.346L15.6502 246.347Z" fill="url(#paint1_radial)"/>
<path fill-rule="evenodd" clip-rule="evenodd" d="M19.2564 258.545L19.7 258.321C19.4228 257.335 19.6941 257.217 20.2044 256.72C20.8593 256.082 20.4862 256.316 20.7579 255.649C21.3545 254.184 20.7859 255.092 21.0715 254.204L21.2627 253.841L21.04 253.903L20.6849 254.092C20.1448 254.348 19.671 254.668 19.2526 254.313C18.9125 254.256 19.2316 254.517 18.9583 254.119C18.8165 253.912 18.8564 253.869 18.8262 253.594C16.4614 255.307 17.3117 254.111 16.6991 256.98L16.5654 257.442C16.4274 258.012 16.3846 257.616 16.5197 258.315C17.245 258.88 18.1956 258.957 19.2564 258.545V258.545ZM21.2627 253.841L21.0715 254.204C20.7864 255.093 21.3545 254.185 20.7579 255.649C20.4862 256.317 20.8593 256.082 20.2044 256.721C19.6945 257.218 19.4228 257.335 19.7 258.321L19.2564 258.546C20.1729 258.758 22.0501 257.716 22.8153 257.273C26.1256 255.36 24.7373 254.651 23.9612 253.558L23.6266 253.08C22.8933 252.18 22.4799 253.046 21.6312 252.394L21.6254 252.838C21.6228 253.701 21.6832 253.494 21.2631 253.841H21.2627Z" fill="url(#paint2_linear)"/>
<path fill-rule="evenodd" clip-rule="evenodd" d="M18.6635 253.15L18.8254 253.588C18.8556 253.863 18.8157 253.906 18.9575 254.112C19.2308 254.511 18.9118 254.25 19.2518 254.306L20.0732 254.109L19.7105 249.354L19.157 249.299L18.0757 249.539C18.5168 250.771 18.266 251.96 18.6639 253.151L18.6635 253.15ZM19.7101 249.354L20.069 249.196L20.7067 249.108C20.973 250.527 20.9248 251.68 21.0581 252.604C21.186 253.49 21.3374 253.25 21.0392 253.897L21.2619 253.835C21.682 253.487 21.622 253.694 21.6241 252.831L21.63 252.387L21.799 252.275C21.4845 251.397 21.3059 249.216 21.3642 248.507L19.1562 249.298L19.7097 249.354H19.7101ZM19.2518 254.306C19.6702 254.662 20.144 254.342 20.6841 254.086C20.796 253.526 20.3352 249.556 20.069 249.196L19.7101 249.354L20.0728 254.109L19.2514 254.306H19.2518ZM20.6841 254.086L21.0392 253.897C21.3378 253.251 21.1864 253.49 21.0581 252.604C20.9248 251.68 20.973 250.527 20.7067 249.108L20.069 249.196C20.3348 249.556 20.796 253.525 20.6841 254.086V254.086Z" fill="url(#paint3_linear)"/>
<path fill-rule="evenodd" clip-rule="evenodd" d="M12.297 257.611C12.3267 257.645 12.359 257.678 12.3951 257.71C13.2131 257.858 14.2416 257.631 15.1066 257.02C15.7821 256.543 16.0979 256.069 15.8433 255.308C15.1188 255.113 14.6848 255.218 13.7821 255.47C12.9636 255.713 12.1674 256.787 12.2966 257.611H12.297Z" fill="url(#paint4_linear)"/>
<defs>
<linearGradient id="paint0_linear" x1="16.3447" y1="259.638" x2="18.4433" y2="264.285" gradientUnits="userSpaceOnUse">
<stop stop-color="#3A3D49"/>
<stop offset="0.541176" stop-color="#434C57"/>
<stop offset="1" stop-color="#3A3D49"/>
</linearGradient>
<radialGradient id="paint1_radial" cx="0" cy="0" r="1" gradientUnits="userSpaceOnUse" gradientTransform="translate(18.0368 243.965) rotate(12.2648) scale(3.52835 4.20728)">
<stop stop-color="#F7000C"/>
<stop offset="1" stop-color="#F10009"/>
</radialGradient>
<linearGradient id="paint2_linear" x1="21.6434" y1="255.817" x2="13.6982" y2="259.714" gradientUnits="userSpaceOnUse">
<stop stop-color="#5E6E75"/>
<stop offset="1" stop-color="#6A7C84"/>
</linearGradient>
<linearGradient id="paint3_linear" x1="20.3893" y1="250.613" x2="22.542" y2="250.039" gradientUnits="userSpaceOnUse">
<stop stop-color="#CBD4D9"/>
<stop offset="1" stop-color="#879196"/>
</linearGradient>
<linearGradient id="paint4_linear" x1="15.3926" y1="255.697" x2="12.6899" y2="257.335" gradientUnits="userSpaceOnUse">
<stop stop-color="#F10009"/>
<stop offset="1" stop-color="#D40001"/>
</linearGradient>
</defs>
</svg>
