<svg width="816" height="545" viewBox="0 0 816 545" fill="none" xmlns="http://www.w3.org/2000/svg">
<path fill-rule="evenodd" clip-rule="evenodd" d="M154.58 485.926C167.821 434.851 301.804 463.947 389.641 448.157C477.478 432.367 581.397 358.83 650.173 394.852C718.948 430.875 645.772 517.951 488.031 537.601C330.289 557.251 141.339 537.001 154.58 485.926Z" fill="#252525"/>
<g opacity="0.5">
<path fill-rule="evenodd" clip-rule="evenodd" d="M65.8958 74.687C63.9165 76.1706 64.6853 81.4433 64.6438 83.3946C64.5801 86.4323 64.8319 89.4429 65.1702 92.4697C65.3969 94.4963 66.6745 113.836 70.23 112.351C72.2344 111.514 70.9778 105.919 70.9743 104.15C70.9661 100.216 70.7482 96.2912 70.3988 92.3659C70.074 88.7217 69.8701 85.12 70.0571 81.4687C70.1026 80.5776 71.2132 70.6876 65.8958 74.687" fill="#333A3A"/>
<path fill-rule="evenodd" clip-rule="evenodd" d="M152.093 72.3037C135.089 72.4053 118.092 73.035 101.097 73.4208C92.9184 73.6065 84.7453 73.8425 76.5758 74.1827C73.7921 74.2988 67.8215 73.6297 65.5022 74.7433C60.3536 77.2156 68.6569 77.7937 70.8704 77.7332C104.505 76.8176 138.151 75.6116 171.814 75.5547C188.327 75.5271 204.832 75.8801 221.347 75.8008C227.66 75.7706 234.651 73.7286 236.245 79.2453C238.045 85.4705 235.977 92.4016 235.414 98.657C235.039 102.833 235.173 106.922 235.423 111.094C235.584 113.767 235.166 116.779 235.795 119.402C236.401 121.928 238.819 123.443 241.036 120.613C242.361 118.923 241.702 114.748 241.79 112.789C241.909 110.151 241.797 107.514 241.797 104.876C241.796 98.4363 243.007 92.0219 242.847 85.5835C242.744 81.4318 242.45 73.9051 235.475 72.9076C227.795 71.8089 218.354 72.9137 210.494 72.8463C191.018 72.6794 171.575 72.1894 152.093 72.3037" fill="#333A3A"/>
<path fill-rule="evenodd" clip-rule="evenodd" d="M105.237 112.583C98.8253 112.583 92.413 112.612 86.0019 112.691C80.5034 112.76 71.8583 111.899 66.7407 113.376C63.2372 114.387 62.3065 117.324 66.7407 118.106C71.5767 118.959 78.8653 117.564 83.9251 117.497C109.297 117.161 134.913 116.723 160.25 117.927C183.991 119.056 208.189 120.15 231.965 118.959C233.966 118.859 244.168 118.554 239.513 115.683C236.797 114.007 225.788 115.109 222.259 115.029C209.809 114.747 197.346 114.684 184.9 114.33C172.617 113.98 160.388 112.943 148.1 112.686C133.824 112.388 119.517 112.583 105.237 112.583" fill="#333A3A"/>
<path fill-rule="evenodd" clip-rule="evenodd" d="M98.8199 85.2034C108.813 85.5309 118.7 96.4119 108.589 101.671C99.1032 106.605 81.3252 101.197 86.6 91.6291C85.8417 93.0124 87.5587 90.1262 87.5803 90.107C88.5834 89.2198 90.3845 88.2376 91.6207 87.5382C93.0356 86.7378 94.509 85.8567 96.2149 85.4556C97.3348 85.1924 97.159 86.1829 98.8199 85.2034M93.9554 81.2788C89.2783 82.6498 87.1436 84.1965 83.9293 86.9951C81.7052 88.932 78.8701 89.951 78.8952 92.5683C78.9004 93.1476 79.8918 93.7843 80.063 94.3422C80.2996 95.1134 80.0256 96.1013 80.2132 96.9206C82.148 105.375 95.5836 108.225 105.418 106.629C113.985 105.239 120.392 99.0645 118.407 92.3511C116.409 85.593 103.061 78.6049 93.9554 81.2788" fill="#333A3A"/>
<path fill-rule="evenodd" clip-rule="evenodd" d="M89.79 93.0805C89.79 96.1217 96.1888 96.1217 96.1888 93.0805C96.1888 90.0739 89.79 89.9447 89.79 93.0805" fill="#333A3A"/>
<path fill-rule="evenodd" clip-rule="evenodd" d="M97.7935 92.4646C97.7935 94.8814 102.878 94.8814 102.878 92.4646C102.878 90.0754 97.7935 89.9734 97.7935 92.4646" fill="#333A3A"/>
<path fill-rule="evenodd" clip-rule="evenodd" d="M99.3696 97.4487C97.7414 97.9185 95.6763 96.9442 94.3396 97.5862C91.9724 98.7238 94.3454 99.7533 95.6143 100.211C101.327 102.269 102.344 96.5935 99.3696 97.4487" fill="#333A3A"/>
<path fill-rule="evenodd" clip-rule="evenodd" d="M186.619 90.7081C186.449 90.7624 185.842 90.9551 186.619 90.7081ZM161.739 87.9787C157.463 88.7034 153.852 91.7013 149.207 91.3002C145.647 90.9928 143.236 88.4135 139.722 88.0387C135.226 87.5587 122.989 95.2588 129.423 96.5799C133.176 97.3511 135.258 92.2014 138.574 91.9277C141.197 91.7113 144.765 94.1264 147.483 94.4701C152.554 95.1116 156.036 93.0145 160.488 91.6623C165.325 90.1927 168.077 91.516 172.284 93.1494C175.605 94.4386 178.732 95.278 182.532 94.746C186.098 94.2472 190.577 91.4942 194.167 91.7766C197.683 92.0533 200.192 94.8077 203.808 95.0635C205.299 95.1686 207.518 95.55 207.268 93.8229C207.067 92.44 205.012 92.6743 203.726 92.1716C200.42 90.8789 197.327 88.5891 193.336 88.7844C190.334 88.9316 187.601 90.515 184.835 91.2726C175.775 93.7533 170.682 86.4727 161.739 87.9787" fill="#333A3A"/>
<path fill-rule="evenodd" clip-rule="evenodd" d="M169.307 131.783C151.831 131.903 134.296 132.098 116.869 133.15C112.738 133.399 70.5509 136.39 70.631 136.605C70.7788 137.004 76.2049 137.612 76.171 137.706C75.8053 137.026 74.9693 136.744 73.6636 136.861C113.674 136.861 153.558 134.172 193.621 134.656C203.687 134.777 213.792 134.726 223.851 134.964C226.363 135.024 232.585 136.375 234.558 135.524C239.734 133.289 230.33 133.031 228.773 132.938C209.057 131.754 189.078 131.635 169.307 131.783" fill="#17373E"/>
<path fill-rule="evenodd" clip-rule="evenodd" d="M65.4526 138.157C62.84 140.124 65.2458 147.198 65.3486 149.857C65.4976 153.702 65.3749 157.573 65.8242 161.407C66.3371 165.787 67.1328 170.454 68.6634 174.703C69.5064 177.044 72.4654 180.764 73.6379 176.511C74.4751 173.472 73.2039 169.442 72.7616 166.347C72.1698 162.207 72.0267 158.121 72.0045 153.96C71.9846 150.335 71.8917 146.694 71.4956 143.08C71.29 141.204 70.0328 134.737 65.4526 138.157" fill="#17373E"/>
<path fill-rule="evenodd" clip-rule="evenodd" d="M131.183 174.187C118.782 174.347 106.353 174.566 93.9727 175.148C88.8983 175.387 83.828 175.742 78.7722 176.145C77.7405 176.226 66.3216 176.575 71.4241 179.738C73.727 181.167 83.2005 179.192 86.3295 178.986C91.5921 178.64 96.8534 178.415 102.131 178.247C114.36 177.857 126.626 177.513 138.867 177.672C161.222 177.964 183.433 178.094 205.795 177.719C208.972 177.666 233.862 178.165 234.707 175.684C235.389 173.684 226.488 174.601 224.865 174.638C218.911 174.771 212.957 174.74 207.001 174.717C181.771 174.62 156.394 173.867 131.183 174.187" fill="#17373E"/>
<path fill-rule="evenodd" clip-rule="evenodd" d="M230.492 134.839C230.886 143.129 232.766 151.409 233.368 159.724C233.642 163.525 233.966 167.322 234.214 171.125C234.294 172.351 233.635 175.306 235.567 176.012C238.217 176.98 238.574 175.03 239.07 173.711C240.503 169.901 239.534 164.952 239.404 161.039C239.278 157.25 239.269 153.453 238.897 149.671C238.516 145.806 237.479 142.015 236.998 138.164C236.795 136.536 237.506 133.825 235.203 132.815C233.213 131.941 230.406 133.042 230.492 134.839" fill="#17373E"/>
<path fill-rule="evenodd" clip-rule="evenodd" d="M108.597 148.629C108.644 148.656 108.691 148.684 108.738 148.712C108.691 148.684 108.644 148.657 108.597 148.629M98.0589 146.173C101.989 147.016 105.217 146.701 108.971 148.849C112.083 150.63 115.275 153.236 116.307 156.115C118.692 162.768 110.607 166.414 103.028 166.486C95.264 166.559 83.7727 165.207 84.1705 157.736C84.4755 151.996 90.0582 146.396 98.0589 146.173M98.3364 142.414C88.1455 142.795 79.9252 151.387 80.0134 158.619C80.1197 167.385 93.3491 169.643 102.747 169.704C113.353 169.772 123.929 164.274 121.087 155.319C118.81 148.145 108.137 142.032 98.3364 142.414" fill="#17373E"/>
<path fill-rule="evenodd" clip-rule="evenodd" d="M88.084 154.182C88.084 156.627 93.2279 156.627 93.2279 154.182C93.2279 151.766 88.084 151.662 88.084 154.182" fill="#17373E"/>
<path fill-rule="evenodd" clip-rule="evenodd" d="M98.874 153.11C98.874 155.573 104.059 155.573 104.059 153.11C104.059 150.674 98.874 150.57 98.874 153.11" fill="#17373E"/>
<path fill-rule="evenodd" clip-rule="evenodd" d="M92.9275 158.685C89.5794 161.195 101.341 165.594 104.115 162.103C106.393 159.236 101.433 160.186 99.6745 160.031C97.7636 159.862 94.4873 157.517 92.9275 158.685" fill="#17373E"/>
<path fill-rule="evenodd" clip-rule="evenodd" d="M186.96 153.16C186.638 153.262 186.638 153.262 186.96 153.16ZM142.794 149.075C139.404 149.552 128.278 152.37 128.128 155.39C127.854 160.879 138.75 155.257 141.116 154.535C147.543 152.574 150.92 156.574 157.377 156.785C162.985 156.969 168.141 153.366 173.423 153.792C178.958 154.238 181.62 158.659 188.01 156.312C191.39 155.07 191.305 153.156 187.51 152.976C185.217 152.867 183.641 153.578 181.25 152.837C177.511 151.679 176.004 149.794 171.529 150.093C168.153 150.319 165.101 151.748 161.805 152.301C154.257 153.567 150.071 148.052 142.794 149.075" fill="#17373E"/>
<path fill-rule="evenodd" clip-rule="evenodd" d="M213.004 155.543C212.771 155.616 212.771 155.616 213.004 155.543ZM213.86 153.256C213.897 153.269 214.153 153.535 213.86 153.256ZM209.972 151.514C209.826 151.598 209.826 151.598 209.972 151.514ZM210.057 151.491C210.811 151.829 216.869 154.94 212.469 155.672C210.235 156.044 208.386 152.669 210.057 151.491M208.049 148.047C198.344 151.369 208.788 163.258 216.405 158.428C219.61 156.395 220.032 152.287 216.914 150.169C215.045 148.9 210.585 147.177 208.049 148.047" fill="#17373E"/>
<path fill-rule="evenodd" clip-rule="evenodd" d="M116.944 194.897C104.833 194.9 92.6164 194.709 80.5222 195.248C78.4868 195.338 70.7333 195.048 69.6846 196.645C67.7661 199.567 75.744 198.116 76.9031 198.029C100.984 196.219 126.139 197.26 150.299 197.776C170.059 198.198 189.713 198.46 209.449 199.224C214.637 199.425 219.82 199.647 225.004 199.882C226.694 199.959 230.946 200.799 231.302 198.773C231.632 196.898 226.327 197.322 225.002 197.269C214.464 196.853 203.933 196.416 193.398 195.971C168.041 194.898 142.342 194.893 116.944 194.897" fill="#333A3A"/>
<path fill-rule="evenodd" clip-rule="evenodd" d="M69.2944 198.146C67.0323 199.834 68.0927 206.28 68.0296 208.411C67.9192 212.138 67.6849 215.861 67.5798 219.587C67.4705 223.481 67.6224 227.392 67.9291 231.28C68.0576 232.913 69.8424 240.803 72.6524 236.288C73.9079 234.27 72.622 228.65 72.6413 226.364C72.6758 222.203 72.9743 218.059 73.2501 213.904C73.4873 210.332 73.496 206.757 73.704 203.184C73.77 202.045 73.9494 194.64 69.2944 198.146" fill="#333A3A"/>
<path fill-rule="evenodd" clip-rule="evenodd" d="M233.338 231.432C221.552 232.339 209.577 231.911 197.747 232.581C187.551 233.158 177.364 233.394 167.141 233.556C143.993 233.923 120.806 234.281 97.7253 235.729C92.4651 236.059 87.2113 236.409 81.9371 236.586C79.2994 236.675 68.2311 235.773 67.4067 237.861C66.0029 241.416 77.8395 240.009 80.3925 239.954C86.0067 239.832 91.5946 239.527 97.1931 239.207C120.727 237.861 144.351 237.458 167.936 236.899C180.763 236.595 193.5 235.89 206.298 235.249C212.677 234.93 219.074 234.919 225.452 234.61C227.121 234.529 233.029 234.689 234.229 233.68C235.054 232.988 235.263 231.298 233.338 231.432" fill="#333A3A"/>
<path fill-rule="evenodd" clip-rule="evenodd" d="M229.342 198.751C229.746 207.237 230.385 215.715 230.766 224.201C230.881 226.752 229.854 231.326 231.747 233.576C234.79 237.194 237.166 233.365 237.723 231.11C239.482 223.994 237.591 216.133 237.1 208.973C236.913 206.241 238.043 200.161 236.284 197.716C234.609 195.388 229.192 195.622 229.342 198.751" fill="#333A3A"/>
<path fill-rule="evenodd" clip-rule="evenodd" d="M209.556 210.837C214.071 211.756 214.731 219.126 209.636 219.671C202.053 220.483 205.369 212.357 209.556 210.837M208.292 207.906C206.914 207.873 203.735 207.588 202.886 208.43C202.176 209.134 202.894 210.62 202.811 211.291C202.512 213.689 199.915 215.074 201.076 217.905C201.864 219.826 203.974 221.632 206.546 222.299C220.117 225.82 219.952 206.134 208.292 207.906" fill="#333A3A"/>
<path fill-rule="evenodd" clip-rule="evenodd" d="M85.7679 209.227C85.734 209.26 85.7001 209.292 85.6668 209.324C85.7001 209.292 85.734 209.26 85.7679 209.227M96.4281 204.97C96.3749 204.63 96.3218 204.289 96.2686 203.948C103.627 206.555 109.482 211.406 107.038 217.917C105.174 222.884 98.4389 224.645 92.164 223.419C85.2178 222.061 81.8983 217.763 83.7713 212.484C84.6353 210.049 87.2888 206.777 90.7187 205.994C92.3153 205.629 95.8462 206.558 96.4281 204.97M92.1264 202.909C90.2651 203.003 88.4534 203.586 86.9345 204.382C88.3565 203.479 90.2516 202.941 92.1264 202.909M92.1798 199.701C87.5821 199.806 84.5693 201.896 81.8423 204.405C80.9864 205.193 78.0928 207.282 78.4509 208.343C78.7343 209.182 79.4756 210.409 81.0366 209.474C72.8607 221.707 93.9821 232.142 106.876 223.634C118.91 215.695 106.971 199.328 92.1798 199.701" fill="#333A3A"/>
<path fill-rule="evenodd" clip-rule="evenodd" d="M88.0029 211.065C88.0029 212.694 91.3715 212.694 91.3715 211.065C91.3715 209.436 88.0029 209.436 88.0029 211.065" fill="#333A3A"/>
<path fill-rule="evenodd" clip-rule="evenodd" d="M93.7495 211.341C93.7495 212.997 97.1724 212.997 97.1724 211.341C97.1724 209.686 93.7495 209.686 93.7495 211.341" fill="#333A3A"/>
<path fill-rule="evenodd" clip-rule="evenodd" d="M96.3563 217.156C94.755 217.253 88.8936 216.845 87.8649 217.898C86.1455 219.658 88.8896 219.719 90.2373 219.909C91.4513 220.08 96.7284 219.983 97.4721 219.174C98.1294 218.459 97.9757 217.052 96.3563 217.156" fill="#333A3A"/>
<path fill-rule="evenodd" clip-rule="evenodd" d="M166.981 212.593C166.706 212.678 166.706 212.678 166.981 212.593ZM144.832 211.376C141.224 211.576 138.168 213.134 134.718 213.756C131.036 214.419 129.442 213.199 126.094 212.399C122.611 211.568 120.134 211.897 117.334 213.682C115.748 214.694 112.268 217.024 113.259 218.821C115.529 222.936 120.668 216.242 123.085 215.93C126.855 215.445 130.21 217.92 134.558 217.211C138.498 216.57 141.993 214.539 146.109 214.518C149.55 214.499 152.792 215.913 156.19 216.255C161.376 216.777 164.781 215.395 169.575 214.368C173.732 213.478 176.647 214.652 180.557 215.639C182.345 216.09 188.308 217.73 187.21 214.756C186.9 213.916 179.041 212.414 177.823 212.125C173.527 211.106 170.806 211.503 166.714 212.675C163.301 213.652 160.43 214.128 156.771 213.591C152.739 212.998 149.073 211.135 144.832 211.376" fill="#333A3A"/>
</g>
<g opacity="0.5">
<path fill-rule="evenodd" clip-rule="evenodd" d="M310.844 75.0073C311.427 65.6016 312.228 56.209 312.65 46.7976C312.859 42.1339 313.023 37.4698 313.181 32.8053C313.216 31.7667 313.252 30.7284 313.283 29.6898C313.386 26.1612 312.828 25.8725 317.558 25.5592C338.659 24.1609 359.842 23.6975 380.969 22.4323C406.447 20.9065 432.058 19.853 457.609 19.3808C468.963 19.1705 480.365 18.7351 491.721 19.0001C494.237 19.0588 499.176 18.5673 500.167 20.0357C500.595 20.67 499.697 22.8529 499.583 23.5849C499.227 25.8716 498.895 28.1662 498.69 30.4643C497.482 44.0181 498.202 57.9135 501.698 71.2618C493.497 67.7902 483.137 64.8039 473.578 65.3966C463.834 66.0007 456.545 70.2276 448.745 74.118C444.333 76.3184 442.847 76.8971 438.445 74.7655C434.652 72.9282 431.063 70.8277 427.485 68.7662C421.962 65.5845 416.75 62.1347 411.395 58.7993C401.548 52.6664 387.982 43.937 374.383 46.5071C364.666 48.3435 355.694 52.3527 347.261 56.2765C334.731 62.1058 323.389 69.2445 310.844 75.0073M479.711 14.8243C431.301 14.8243 383.253 18.3476 334.979 20.2537C329.938 20.4525 324.913 20.7456 319.889 21.1096C316.541 21.3523 308.353 20.3334 306.159 22.4812C304.695 23.9141 305.953 24.1292 306.159 25.4907C306.419 27.2066 306.265 29.2397 306.198 31.0559C306.037 35.4322 305.867 39.8081 305.735 44.1848C305.235 60.7262 304.923 77.2645 305.815 93.8015C306.009 97.4081 307.76 102.402 306.802 105.906C306.109 108.443 303.791 109.988 309.136 110.456C314.396 110.918 320.827 109.744 326.092 109.368C331.387 108.99 336.681 108.579 341.982 108.251C365.03 106.825 388.302 107.041 411.411 106.567C434.728 106.089 458.054 106.058 481.379 106.049C491.138 106.045 502.29 106.456 511.813 104.44C515.163 103.73 515.705 103.381 514.879 100.885C514.722 100.411 513.71 100.237 513.413 99.3807C513.01 98.2159 513.217 96.8001 513.123 95.5875C512.814 91.6274 512.707 87.6602 512.458 83.6975C512.043 77.0766 510.523 70.651 509.399 64.0967C508.101 56.5273 508.168 48.8419 508.142 41.223C508.127 36.997 508.271 32.785 508.723 28.5708C509.013 25.8679 510.786 21.8325 509.887 19.3118C509.439 18.0568 508.706 17.0615 506.966 16.5213C505.864 16.1788 504.937 16.4469 503.847 16.3601C502.555 16.2572 501.748 16.1209 500.2 15.8577C493.566 14.7288 486.472 14.8243 479.711 14.8243" fill="#17373E"/>
<path fill-rule="evenodd" clip-rule="evenodd" d="M452.923 32.8186C452.92 35.4526 452.372 39.3396 453.989 41.8199C456.041 44.9661 458.608 43.9827 459.288 41.0262C459.677 39.3322 459.668 34.3189 458.943 32.8186C457.917 30.6948 452.923 29.2483 452.923 32.8186" fill="#333A3A"/>
<path fill-rule="evenodd" clip-rule="evenodd" d="M458.81 33.8363C455.516 33.9235 445.924 33.3299 443.695 35.3183C439.872 38.7286 446.527 39.3327 449.385 39.1417C452.691 38.9209 462.909 39.4598 465.124 37.4692C468.828 34.139 461.4 33.7653 458.81 33.8363" fill="#333A3A"/>
<path fill-rule="evenodd" clip-rule="evenodd" d="M330.987 121.834C345.467 123.722 340.962 140.298 327.26 136.459C322.486 135.121 315.451 131.255 318.09 126.701C320.061 123.298 326.486 121.51 330.987 121.834M324.993 116.679C315.576 117.87 309.138 125.521 312.367 132.195C315.481 138.634 327.296 143.348 336.009 141.035C344.327 138.825 348.476 130.517 345.672 124.438C342.742 118.088 333.197 115.643 324.993 116.679" fill="#333A3A"/>
<path fill-rule="evenodd" clip-rule="evenodd" d="M413.071 123.772C409.466 123.996 406.35 125.892 402.723 126.227C399.331 126.541 396.52 125.669 393.344 124.973C389.505 124.131 385.984 123.761 382.061 124.509C379.063 125.081 376.106 126.612 372.992 126.797C366.864 127.16 359.742 121.911 354.958 127.848C352.664 130.694 355.995 132.527 359.425 131.2C363.001 129.817 361.246 129.321 365.682 130.139C369.383 130.82 372.375 131.19 376.082 130.235C379.441 129.37 382.389 127.787 386.039 127.61C389.613 127.436 392.723 128.658 396.139 129.185C400.341 129.834 404.058 129.343 408.039 128.354C411.826 127.414 413.336 126.9 417.157 127.738C419.577 128.27 424.862 129.958 427.217 128.597C431.289 126.246 425.837 125.902 423.691 125.568C420.234 125.03 416.658 123.551 413.071 123.772" fill="#333A3A"/>
<path fill-rule="evenodd" clip-rule="evenodd" d="M495.574 122.192C495.603 122.209 495.631 122.226 495.659 122.242C495.631 122.226 495.602 122.209 495.574 122.192M492.036 121.636C497.299 121.891 502.991 129.089 496.017 129.345C491.108 129.525 485.616 123.221 492.036 121.636M491.295 115.747C474.652 119.236 482.26 136.852 498.314 134.817C505.605 133.893 508.076 127.551 505.666 122.856C504.631 120.84 502.612 119.14 500.2 117.979C498.42 117.123 493.329 115.322 491.295 115.747" fill="#333A3A"/>
<path fill-rule="evenodd" clip-rule="evenodd" d="M413.646 152.522C428.291 152.144 442.938 151.767 457.598 151.665C465.544 151.61 473.445 151.714 481.379 152.056C484.898 152.207 488.414 152.353 491.935 152.465C492.542 152.485 493.382 152.454 494.308 152.419C496.487 152.339 499.149 152.241 500.4 152.738C507.404 155.519 493.135 155.824 491.401 155.802C487.517 155.753 483.636 155.609 479.756 155.465C476.365 155.339 472.973 155.213 469.579 155.151C447.801 154.749 425.891 155.484 404.077 156.215C399.077 156.383 394.081 156.55 389.093 156.704C383.798 156.867 378.503 156.973 373.209 157.078C365.641 157.229 358.074 157.38 350.507 157.699C347.617 157.821 344.728 157.95 341.839 158.079L341.839 158.079L341.838 158.079C337.7 158.264 333.561 158.449 329.42 158.613C326.179 158.741 322.936 158.866 319.69 158.927C319.106 158.938 318.345 158.999 317.513 159.066C315.501 159.227 313.08 159.421 311.772 159.02C310.198 158.536 308.926 157.861 309.791 156.429C310.523 155.219 313.181 155.364 315.12 155.47C315.649 155.499 316.125 155.525 316.493 155.519C322.688 155.429 328.87 155.168 335.055 154.884C337.317 154.78 339.578 154.673 341.839 154.566L341.84 154.566L341.84 154.566C353.614 154.01 365.377 153.455 377.18 153.304C389.34 153.148 401.493 152.835 413.646 152.522ZM490.134 224.889L494.345 224.85C496.519 224.992 497.492 226.706 496.096 228.023C495.027 229.031 490.914 229.077 488.232 229.107L488.232 229.107L488.232 229.107C487.489 229.115 486.856 229.122 486.428 229.148C479.428 229.57 472.442 229.76 465.421 229.811C450.636 229.916 435.907 230.392 421.146 231.024C406.036 231.671 390.913 231.914 375.79 232.157L375.79 232.157L375.788 232.157C364.662 232.336 353.536 232.515 342.414 232.855C336.044 233.049 329.674 233.195 323.302 233.32C322.618 233.334 321.708 233.407 320.678 233.491L320.677 233.491L320.676 233.491C316.651 233.817 310.802 234.292 309.477 231.892C308.301 229.761 309.936 228.781 312.327 228.335C311.95 227.074 312.019 225.301 312.06 224.286C312.072 223.981 312.081 223.744 312.075 223.61C312.014 222.337 311.973 221.064 311.931 219.79C311.883 218.348 311.836 216.905 311.762 215.463C311.695 214.154 311.632 212.844 311.57 211.533C311.323 206.363 311.076 201.181 310.546 196.032C310.301 193.656 309.913 191.307 309.526 188.962C308.908 185.218 308.291 181.485 308.262 177.663C308.257 176.975 308.211 176.115 308.16 175.146C307.895 170.184 307.477 162.339 311.58 159.95C318.813 156.781 317.383 165.928 316.745 170.01C316.64 170.685 316.556 171.221 316.536 171.54C316.121 178.328 316.685 184.817 317.595 191.563C318.209 196.118 317.85 200.658 317.491 205.206C317.362 206.83 317.234 208.455 317.15 210.083C317.108 210.887 317.071 211.692 317.034 212.497C316.92 214.973 316.806 217.446 316.558 219.919C316.531 220.187 316.522 220.7 316.511 221.356C316.478 223.205 316.426 226.188 315.899 227.999C317.021 227.963 318.11 227.972 319.01 227.979C319.583 227.984 320.08 227.988 320.459 227.979C322.186 227.94 323.912 227.902 325.639 227.864L325.642 227.864C330.742 227.752 335.843 227.639 340.942 227.496C352.981 227.156 365.024 227.042 377.067 226.929L377.067 226.929L377.068 226.929L377.068 226.929C391.292 226.794 405.516 226.66 419.734 226.153C443.165 225.317 466.678 225.103 490.134 224.889ZM494.481 158.526C494.47 170.154 495.667 181.463 497.066 193.044C497.932 200.208 498.626 207.399 499.178 214.581C499.204 214.913 499.2 215.468 499.195 216.163C499.167 220.134 499.106 228.692 504.334 226.645C508.281 225.099 506.764 216.137 505.925 211.178C505.741 210.09 505.589 209.195 505.535 208.613C505.42 207.376 505.308 206.14 505.195 204.904L505.194 204.893C504.668 199.135 504.143 193.383 503.451 187.632L503.305 186.42C502.504 179.778 501.704 173.141 501.562 166.468C501.551 165.916 501.621 165.147 501.701 164.279C501.932 161.767 502.24 158.422 500.85 157.087C498.895 155.21 494.486 155.765 494.481 158.526Z" fill="#17373E"/>
<path fill-rule="evenodd" clip-rule="evenodd" d="M414.318 187.033C433.024 180.679 451.949 174.251 471.401 169.674C472.807 169.343 473.696 170.432 473.377 171.345C473.048 172.286 470.005 173.089 467.987 173.622C467.383 173.781 466.871 173.916 466.551 174.024C463.834 174.935 461.11 175.835 458.385 176.734C455.596 177.656 452.806 178.577 450.024 179.511C444.239 181.452 438.448 183.384 432.658 185.316C426.456 187.385 420.254 189.454 414.059 191.534C413.825 191.612 413.591 191.691 413.357 191.769C421.78 194.017 430.155 196.364 438.493 198.783C441.342 199.61 444.182 200.453 447.022 201.297C448.629 201.774 450.236 202.251 451.844 202.726C452.368 202.88 453.28 203.089 454.376 203.34C457.947 204.159 463.472 205.425 463.88 206.705C464.544 208.789 456.917 206.773 454.04 206.012C453.658 205.911 453.36 205.832 453.176 205.788C448.93 204.769 444.734 203.634 440.541 202.499L439.961 202.342C436.637 201.443 433.319 200.535 430 199.626C423.518 197.852 417.036 196.077 410.519 194.375C409.598 194.134 408.676 193.894 407.754 193.655C397.294 197.182 386.855 200.743 376.45 204.361C370.872 206.301 365.323 208.286 359.79 210.297C358.582 210.736 357.086 211.415 355.462 212.152C351.568 213.919 346.932 216.023 343.744 215.97C342.034 215.942 340.882 215.667 340.703 214.111C340.519 212.505 343.263 211.663 345.236 211.058C345.708 210.913 346.136 210.781 346.47 210.656C352.384 208.436 358.335 206.271 364.302 204.134C376.155 199.889 388.119 195.814 400.125 191.821C400.195 191.797 400.265 191.774 400.334 191.751C393.675 190.059 386.998 188.407 380.305 186.791C379.637 186.629 378.267 186.344 376.466 185.97C367.96 184.201 349.837 180.433 350.644 178.232C351.569 175.714 368.559 180.316 376.081 182.353C377.491 182.735 378.568 183.027 379.144 183.165C388.138 185.316 397.106 187.529 406.028 189.842C408.787 188.912 411.55 187.973 414.318 187.033Z" fill="#333A3A"/>
<path fill-rule="evenodd" clip-rule="evenodd" d="M334.166 242.332C339.642 243.053 343.504 246.996 342.904 251.126C342.092 256.707 334.684 259.264 327.841 258.536C320.076 257.71 318.442 252.781 322.204 248.04C323.037 246.991 323.995 245.735 325.509 245.182C326.55 244.802 327.876 245.138 328.714 244.832C331.653 243.758 329.886 242.047 334.166 242.332M331.672 238.686C324.99 239.327 312.644 245.132 313.269 250.939C313.811 251.613 314.627 251.888 315.715 251.766C315.453 253.024 315.538 254.269 315.972 255.5C316.606 257.099 317.872 258.409 319.569 259.45C323.063 261.594 327.839 262.12 332.19 261.744C340.315 261.043 346.718 256.874 347.175 250.53C347.62 244.337 340.42 237.856 331.672 238.686" fill="#333A3A"/>
<path fill-rule="evenodd" clip-rule="evenodd" d="M364.034 246.244C361.036 247.437 356.293 249.269 354.535 251.535C352.678 253.928 354.601 256.546 358.514 255.414C361.621 254.515 363.597 251.66 366.91 250.745C369.835 249.937 371.013 250.349 374.104 251.153C377.289 251.981 380.072 252.782 383.515 252.579C387.842 252.323 391.59 250.44 395.825 250.011C399.391 249.65 402.332 250.692 405.747 251.106C409.709 251.587 412.3 250.461 416.007 249.875C418.528 249.476 422.973 251.099 424.812 250.492C428.947 249.127 424.573 247.458 422.283 246.906C418.427 245.978 416.053 246.797 412.385 247.567C408.403 248.404 406.683 247.775 402.876 247.007C395.174 245.453 389.223 249.21 381.923 248.527C375.164 247.895 371.119 243.428 364.034 246.244" fill="#333A3A"/>
<path fill-rule="evenodd" clip-rule="evenodd" d="M489.976 243.467C497.39 248.685 489.061 256.11 480.887 251.939C478.01 250.471 477.964 248.114 480.203 246.005C482.251 244.075 486.75 243.323 489.976 243.467V243.467ZM487.227 239.252C480.3 240.263 473.767 242.649 473.14 248.651C472.528 254.507 480.528 257.226 487.249 256.842C502.338 255.979 501.247 237.217 487.227 239.252V239.252Z" fill="#333A3A"/>
</g>
<g opacity="0.5">
<path fill-rule="evenodd" clip-rule="evenodd" d="M69.171 278.447C58.5709 278.536 47.976 278.83 37.3969 279.332C27.3364 279.811 16.4206 279.447 6.52404 280.912C3.71387 281.327 -0.0822271 283.25 3.65436 285.365C6.28077 286.852 15.8897 285.141 19.026 284.997C30.5759 284.464 42.1316 283.825 53.6978 283.519C64.6474 283.228 75.5964 283.126 86.5513 283.044C88.2238 283.031 91.0002 282.629 92.6657 282.993C95.0588 283.517 94.4912 283.66 94.6703 285.94C94.9952 290.072 94.9054 294.219 94.7963 298.355C94.6907 302.358 94.4935 306.36 94.5127 310.364C94.5262 313.221 93.3098 318.898 95.2192 321.379C97.9676 324.95 100.819 321.071 101.024 318.698C101.417 314.159 101.241 309.565 101.243 305.02C101.244 300.754 101.285 296.489 101.085 292.225C100.939 289.145 101.526 283.769 99.3158 280.969C97.0651 278.117 91.646 278.732 87.6918 278.596C81.5236 278.383 75.3444 278.398 69.171 278.447" fill="#333A3A"/>
<path fill-rule="evenodd" clip-rule="evenodd" d="M1.72794 283.594C1.73961 291.609 0.504577 299.57 0.158629 307.576C-5.20096e-05 311.256 -0.322081 315.298 0.918198 318.911C2.17015 322.56 6.14651 323.35 6.60446 319.277C7.53205 311.03 7.30453 302.478 8.02676 294.164C8.2817 291.229 9.94085 285.849 8.39196 283.101C7.028 280.679 1.7221 280.215 1.72794 283.594" fill="#333A3A"/>
<path fill-rule="evenodd" clip-rule="evenodd" d="M101.129 318.923C82.7205 320.753 63.4757 320.086 44.9357 320.373C36.0408 320.511 27.1476 320.52 18.2516 320.59C15.1468 320.614 7.26231 319.727 4.57639 321.037C0.300754 323.123 4.93984 324.733 7.77044 324.779C25.3263 325.068 43.0776 324.462 60.6299 324.029C68.5161 323.835 76.428 323.74 84.2933 323.237C89.1354 322.927 94.4267 322.627 99.1288 321.65C100.13 321.442 102.312 321.485 102.536 320.459C102.675 319.824 102.424 318.789 101.129 318.923" fill="#333A3A"/>
<path fill-rule="evenodd" clip-rule="evenodd" d="M24.5805 330.573C19.4642 330.595 4.04651 328.811 1.92765 332.557C-0.897111 337.552 10.1225 336.386 13.0861 336.329C19.8172 336.199 26.5436 336.185 33.2765 336.187C39.8828 336.19 46.4885 336.158 53.0936 336.04C55.0071 336.005 59.4612 336.602 60.5621 334.871C61.3986 333.557 60.7377 332.519 59.1946 331.823C55.4819 330.148 45.8368 331.12 41.49 330.969C35.8621 330.774 30.2155 330.573 24.5805 330.573" fill="#333A3A"/>
<path fill-rule="evenodd" clip-rule="evenodd" d="M86.8247 331.498C83.9007 331.629 77.9864 330.724 75.367 331.728C72.3899 332.87 73.4389 334.658 76.0093 335.444C77.7892 335.988 85.0908 335.703 86.8247 335.073C88.632 334.415 90.6756 331.32 86.8247 331.498" fill="#333A3A"/>
<path fill-rule="evenodd" clip-rule="evenodd" d="M118.879 284.38C115.756 285.023 116.703 298.334 116.623 300.444C116.402 306.225 115.537 313.496 118.095 319.064C119.727 322.613 122.861 322.132 122.327 318.395C121.858 315.116 121.054 311.874 120.705 308.572C119.918 301.103 118.846 293.135 119.59 285.659C119.907 286.094 122.869 290.123 123.566 289.822C123.356 289.916 120.149 284.128 118.879 284.38" fill="#333A3A"/>
<path fill-rule="evenodd" clip-rule="evenodd" d="M154.006 279.478C147.686 279.548 141.366 279.632 135.048 279.763C130.025 279.869 122.131 279.249 117.524 280.835C112.038 282.724 114.641 286.933 119.793 287.022C124.351 287.101 129.212 286.329 133.811 286.211C146.235 285.891 158.68 285.823 171.109 285.744C182.35 285.671 194.068 286.571 205.21 285.304C206.863 296.321 202.393 307.385 203.914 318.53C204.149 320.259 204.044 322.703 206.977 323.097C210.68 323.595 210.832 320.841 210.973 318.87C211.374 313.24 211.157 307.606 211.706 301.969C212.215 296.745 213.216 291.406 212.37 286.174C211.329 279.736 207.22 280.252 199.955 279.984C184.613 279.419 169.365 279.309 154.006 279.478" fill="#333A3A"/>
<path fill-rule="evenodd" clip-rule="evenodd" d="M132.828 318.6C129.607 318.661 124.259 317.916 122.195 320.235C120.049 322.647 122.596 324.751 125.717 325.246C129.413 325.832 134.231 325.028 138.066 325.02C142.06 325.011 146.055 325.044 150.049 325.056C167.172 325.106 184.368 325.301 201.479 324.769C203.868 324.695 210.65 325.297 212.304 323.576C213.772 322.05 212.745 320.681 210.812 319.903C207.641 318.628 201.128 319.113 197.601 319.011C193.244 318.887 188.883 318.846 184.524 318.795C167.322 318.596 150.029 318.281 132.828 318.6" fill="#333A3A"/>
<path fill-rule="evenodd" clip-rule="evenodd" d="M147.311 329.751C140.903 329.833 134.067 329.622 127.722 330.352C122.144 330.993 121.457 335.042 127.462 335.516C132.98 335.951 139.671 335.137 145.216 334.87C147.185 334.775 149.476 334.91 150.419 333.275C151.405 331.568 149.521 329.93 147.311 329.751" fill="#333A3A"/>
<path fill-rule="evenodd" clip-rule="evenodd" d="M195.755 330.177C192.335 330.241 182.345 329.137 180.651 332.069C177.831 336.952 191.355 335.097 193.949 335.025C197.219 334.935 209.963 336.368 209.966 332.46C209.969 328.628 198.887 330.118 195.755 330.177" fill="#333A3A"/>
<path fill-rule="evenodd" clip-rule="evenodd" d="M1.17315 354.439C1.18132 363.321 0.445086 372.287 1.52435 381.147C1.97064 384.812 1.89422 391.831 4.72131 394.938C6.72816 397.143 9.5115 396.988 10.6077 394.341C11.3404 392.57 10.1684 389.03 10.0377 387.137C9.9117 385.319 9.76469 383.503 9.65268 381.685C9.36507 377.002 9.38782 372.326 9.47358 367.641C9.54708 363.622 10.8358 358.304 9.62059 354.439C8.48765 350.837 1.17315 349.994 1.17315 354.439" fill="#17373E"/>
<path fill-rule="evenodd" clip-rule="evenodd" d="M120.078 346.625C99.5515 347.011 78.979 346.666 58.4706 347.429C48.3565 347.805 38.282 348.631 28.2185 349.455C23.2743 349.859 18.333 350.277 13.3976 350.733C11.9082 350.871 -0.467753 351.231 4.18709 354.765C6.21961 356.308 12.6876 354.696 15.2469 354.468C20.2022 354.029 25.1674 353.646 30.1297 353.252C39.5724 352.502 49.0268 351.792 58.5097 351.398C80.8435 350.469 103.269 350.748 125.625 350.129C131.673 349.961 137.702 349.841 143.752 350.02C145.34 350.067 157.014 350.512 151.945 347.275C149.549 345.744 140.513 346.534 137.518 346.488C131.705 346.398 125.889 346.515 120.078 346.625" fill="#17373E"/>
<path fill-rule="evenodd" clip-rule="evenodd" d="M148.062 361.591C147.96 357.486 147.859 353.382 147.61 349.282C147.348 344.964 155.183 344.31 157.506 347.805C159.179 350.322 158.885 354.603 158.633 358.273C158.531 359.752 158.437 361.132 158.48 362.256C158.58 364.834 158.833 367.499 159.088 370.199C159.732 376.995 160.397 384.015 158.705 390.43C157.883 393.547 154.381 395.186 152.049 393.488C152.046 393.491 152.043 393.494 152.04 393.498C151.163 394.468 148.433 394.466 146.423 394.464C145.869 394.464 145.37 394.463 144.98 394.483C139.472 394.764 134.066 395.238 128.607 395.853C117.731 397.077 106.949 397.829 95.954 398.034C88.4942 398.172 81.0237 398.219 73.5513 398.265C59.2425 398.354 44.9264 398.443 30.6632 399.178C25.8543 399.426 21.1184 399.851 16.3883 400.531C15.9856 400.589 15.5385 400.664 15.0626 400.743C11.5455 401.33 6.45396 402.18 6.10609 398.49C5.69259 394.11 18.336 393.537 24.8424 393.242C25.8358 393.197 26.6861 393.158 27.325 393.113C47.0809 391.734 67.1468 391.947 86.9865 392.159C87.9478 392.169 88.9086 392.179 89.8687 392.189C91.417 392.205 92.9649 392.224 94.5124 392.244C103.007 392.349 111.491 392.453 119.983 392.063C123.847 391.886 127.762 391.795 131.684 391.704C137.941 391.558 144.217 391.412 150.336 390.914C149.413 388.228 149.252 385.057 149.1 382.069C149.04 380.905 148.982 379.769 148.882 378.7C148.344 373.005 148.203 367.298 148.062 361.591Z" fill="#17373E"/>
<path fill-rule="evenodd" clip-rule="evenodd" d="M164.675 352.444C161.902 352.728 159.589 354.509 160.827 356.769C162.386 359.615 167.03 358.503 170.098 358.323C179.85 357.749 190.032 358.895 199.666 358.031C202.297 357.794 206.114 356.719 203.752 354.064C201.976 352.069 195.507 352.42 192.757 352.228C183.351 351.575 174.068 351.749 164.675 352.444" fill="#00616B"/>
<path fill-rule="evenodd" clip-rule="evenodd" d="M181.132 364.859C177.35 365.05 168.546 364.9 166.952 368.13C164.094 373.926 175.291 371.884 178.701 371.554C182.661 371.171 191.998 372.197 194.107 369.313C197.878 364.157 184.449 364.687 181.132 364.859" fill="#00616B"/>
<path fill-rule="evenodd" clip-rule="evenodd" d="M171.407 377.578C169.613 378.926 169.61 381.332 171.407 382.68C173.607 384.33 178.4 383.987 181.291 384.108C185.323 384.277 196.902 385.878 198.904 382.314C201.606 377.504 191.12 377.605 187.671 377.332C183.684 377.017 174.711 375.097 171.407 377.578" fill="#00616B"/>
<path fill-rule="evenodd" clip-rule="evenodd" d="M30.0732 295.26C30.0732 300.43 40.8291 300.43 40.8291 295.26C40.8291 290.117 30.0732 290.039 30.0732 295.26" fill="#333A3A"/>
<path fill-rule="evenodd" clip-rule="evenodd" d="M50.4751 295.318C50.4751 301.229 62.7262 301.217 62.7262 295.318C62.7262 289.428 50.4751 289.368 50.4751 295.318" fill="#333A3A"/>
<path fill-rule="evenodd" clip-rule="evenodd" d="M38.1333 303.177C32.1781 304.412 37.6643 308.201 40.4296 309.066C44.8242 310.442 50.822 311.456 55.2178 309.393C56.9668 308.573 58.3868 307.482 57.1051 305.889C55.7394 304.193 53.8696 304.947 51.7904 305.104C49.1564 305.303 47.0277 305.272 44.4841 304.638C42.5857 304.165 40.2038 302.749 38.1333 303.177" fill="#333A3A"/>
<path fill-rule="evenodd" clip-rule="evenodd" d="M146.154 295.587C146.154 299.084 153.387 299.084 153.387 295.587C153.387 292.09 146.154 292.09 146.154 295.587" fill="#333A3A"/>
<path fill-rule="evenodd" clip-rule="evenodd" d="M162.152 296.112C162.152 299.998 170.187 299.998 170.187 296.112C170.187 292.227 162.152 292.227 162.152 296.112" fill="#333A3A"/>
<path fill-rule="evenodd" clip-rule="evenodd" d="M161.555 304.545C157.334 304.953 145.126 305.882 144.443 309.788C143.39 315.815 156.766 310.937 159.818 310.464C163.707 309.862 167.179 310.019 171.061 310.136C173.192 310.2 176.027 310.459 175.803 308.022C175.437 304.019 165.244 304.19 161.555 304.545" fill="#333A3A"/>
<path fill-rule="evenodd" clip-rule="evenodd" d="M55.4341 360.117C52.3748 360.73 48.3727 364.701 50.4776 367.131C53.9289 371.116 55.451 364.997 56.8954 364.408C59.5236 363.336 61.6571 367.253 64.4036 365.198C68.7376 361.957 58.1626 359.569 55.4341 360.117" fill="#17373E"/>
<path fill-rule="evenodd" clip-rule="evenodd" d="M90.4886 357.172C86.8605 357.197 79.2012 361.053 78.6587 363.901C78.3367 365.593 79.8307 367.218 82.2599 367.241C85.5677 367.271 86.619 364.042 89.4863 363.367C92.5795 362.639 92.1203 364.316 94.7917 365.185C96.7466 365.822 99.1916 365.555 99.8706 363.751C101.152 360.347 94.2164 357.119 90.4886 357.172" fill="#17373E"/>
<path fill-rule="evenodd" clip-rule="evenodd" d="M62.7177 373.475C56.9147 376.028 66.463 381.5 69.7732 382.184C74.7704 383.217 84.828 381.29 86.0123 376.707C86.4837 374.883 84.964 373.23 82.2827 373.557C80.0752 373.826 78.6593 375.905 76.6145 376.65C73.8545 377.654 71.4008 377.586 69.0556 376.073C67.145 374.841 66.1217 371.984 62.7177 373.475" fill="#17373E"/>
<path fill-rule="evenodd" clip-rule="evenodd" d="M66.923 411.197C61.7384 412.027 56.4681 411.47 51.2585 412.25C45.9462 413.047 42.7714 414.553 37.8359 413.035C37.6037 412.962 37.3721 412.888 37.1405 412.814C33.3205 411.579 29.3167 411.214 25.3182 413.182C22.952 414.347 15.7687 418.377 16.6345 420.836C18.5107 426.166 26.5935 417.808 28.6546 416.993C32.5849 415.439 35.2795 417.424 39.3259 417.984C44.1727 418.655 48.0726 416.732 52.6382 415.967C57.9779 415.071 63.9851 414.759 69.4175 414.279C71.5638 414.09 79.6933 415.364 80.4272 413.359C81.6879 409.914 68.9608 410.872 66.923 411.197" fill="#00616B"/>
<path fill-rule="evenodd" clip-rule="evenodd" d="M104.329 421.933C104.668 422.126 104.396 421.971 104.329 421.933ZM118.846 410.988C123.285 410.65 137.485 408.27 140.401 411.713C142.3 413.956 139.286 422.234 136.411 423.304C134.114 424.159 128.761 423.214 126.24 423.147C121.548 423.023 116.846 422.968 112.16 422.748C110.588 422.675 105.531 422.892 104.299 421.847C102.844 420.614 102.909 414.04 102.566 412.41C106.647 413.402 114.579 411.314 118.846 410.988M128.327 407.613C122.643 407.798 116.959 408.118 111.317 408.691C108.172 409.01 104.986 409.858 102.081 410.26C101.145 410.39 99.6252 410.03 98.4771 410.447C95.122 411.663 98.0599 419.891 98.8691 422.089C100.112 425.466 103.239 426.013 107.621 426.331C113.393 426.751 119.284 426.619 125.074 426.565C130.655 426.514 138.181 427.443 141.312 423.238C143.337 420.52 145.508 414.189 143.778 411.16C141.501 407.173 133.002 407.465 128.327 407.613" fill="#00616B"/>
<path fill-rule="evenodd" clip-rule="evenodd" d="M191.982 424.194C191.678 424.488 191.678 424.488 191.982 424.194ZM193.227 423.068C193.133 423.175 192.697 423.521 193.227 423.068ZM179.673 422.758C182.178 422.404 184.685 422.054 187.194 421.71C184.818 424.207 182.317 423.175 178.259 422.958C178.73 422.891 179.201 422.825 179.673 422.758M167.717 421.874C168.352 421.715 168.987 421.555 169.622 421.396C169.603 421.759 169.707 422.099 169.934 422.415C168.846 422.327 167.76 422.232 166.675 422.132C167.022 422.046 167.37 421.96 167.717 421.874M162.178 418.803C162.143 418.148 163.455 418.598 164.207 418.554C162.757 419.512 162.081 419.595 162.178 418.803M181.991 411.374C182.182 411.191 182.435 411.2 182.749 411.401C182.406 411.487 181.085 411.908 181.991 411.374M194.838 410.239C194.872 410.239 195.585 410.962 194.838 410.239ZM194.477 410.004C194.664 410.111 194.664 410.111 194.477 410.004ZM192.876 409.862C195.503 410.195 195.303 412.509 192.876 409.862ZM162.009 409.704C161.476 410.037 161.658 409.714 162.009 409.704ZM172.057 404.777C167.597 404.972 159.41 404.775 155.685 406.559C150.825 408.888 153.382 416.904 153.817 420.418C154.46 425.613 157.716 427.092 164.231 427.637C172.007 428.288 179.997 428.409 187.813 428.255C194.852 428.116 198.861 426.298 200.151 420.734C200.546 419.031 201.548 416.398 201.516 414.767C201.495 413.636 200.744 413.12 200.46 412.158C198.843 406.682 196.14 406.033 188.664 405.794C183.161 405.618 177.456 404.565 172.057 404.777" fill="#333A3A"/>
</g>
<g opacity="0.5">
<path fill-rule="evenodd" clip-rule="evenodd" d="M408.311 278.968C419.65 279.149 432.516 283.861 430.722 293.843C429.409 301.155 420.976 307.091 411.21 307.603C400.713 308.152 389.616 302.104 388.19 294.081C386.585 285.055 397.222 278.788 408.311 278.968M402.751 274.903C398.154 275.419 393.761 277.231 389.713 278.854C388.169 279.474 380.335 283.254 386.479 284.193C371.675 302.117 406.515 318.766 426.102 307.117C434.898 301.886 439.529 291.968 433.843 284.204C427.963 276.175 414.017 273.633 402.751 274.903" fill="#333A3A"/>
<path fill-rule="evenodd" clip-rule="evenodd" d="M400.041 290.161C400.041 293.508 406.961 293.508 406.961 290.161C406.961 286.813 400.041 286.813 400.041 290.161" fill="#333A3A"/>
<path fill-rule="evenodd" clip-rule="evenodd" d="M412.873 290.696C412.873 294.326 420.376 294.326 420.376 290.696C420.376 287.067 412.873 287.067 412.873 290.696" fill="#333A3A"/>
<path fill-rule="evenodd" clip-rule="evenodd" d="M404.211 297.875C403.201 300.629 414.715 302.041 415.098 298.854C415.281 297.331 404.913 295.954 404.211 297.875" fill="#333A3A"/>
<path fill-rule="evenodd" clip-rule="evenodd" d="M437.966 296.172C451.215 294.979 464.875 295.531 478.188 295.817C481.52 295.889 484.851 295.959 488.184 296.001C490.302 296.027 494.877 296.791 496.726 296.046C504.297 292.998 489.445 291.524 487.342 291.384C474.1 290.566 453.664 290.274 440.382 290.66C436.454 290.774 435.605 296.385 437.966 296.172" fill="#333A3A"/>
<path fill-rule="evenodd" clip-rule="evenodd" d="M497.584 345.619C497.698 335.198 498.196 324.705 499.263 314.314C499.697 310.079 500.219 305.849 500.651 301.614C500.854 299.619 501.799 296.825 500.237 295.074C498.627 293.271 495.096 292.895 492.969 294.494C490.422 296.969 491.162 301.123 490.845 304.117C490.358 308.721 489.77 313.322 489.478 317.935C488.913 326.865 488.78 335.95 489.736 344.868C490.188 349.075 491.166 353.181 492.468 357.285C493.061 359.153 497.776 367.474 496.785 368.622C495.249 370.401 483.892 369.729 481.429 369.778C475.108 369.906 468.784 369.988 462.462 370.079C457.048 370.157 451.635 370.212 446.221 370.248C444.072 370.263 431.441 369.975 434.243 372.368C402.912 374.007 370.983 371.271 339.843 370.332C338.27 370.285 335.696 369.949 333.321 369.853C333.036 368.992 332.803 368.222 332.745 367.687C332.335 363.929 332.229 360.159 331.785 356.403C330.973 349.53 329.399 342.727 328.462 335.866C327.528 329.012 327.622 322.137 327.078 315.267C326.984 314.089 326.764 304.446 323.523 302.103C325.059 302.54 327.537 302.597 328.964 302.511C340.516 301.811 351.983 300.305 363.436 299.011C366.712 298.641 374.147 298.903 376.865 297.674C379.217 296.609 380.148 292.877 376.056 293.179C364.636 294.097 353.278 295.523 341.948 296.926C338.918 297.301 335.895 297.703 332.873 298.113C330.855 298.387 325.527 298.366 323.962 299.279C322.06 300.388 321.859 301.143 322.503 301.644C321.607 301.46 320.534 301.75 319.244 302.719C316.806 305.101 319.098 310.968 319.389 313.762C319.738 317.112 319.91 320.469 320.113 323.826C320.506 330.322 321.411 336.728 322.803 343.145C324.364 350.335 325.69 357.554 327.254 364.741C327.662 366.612 328.192 368.437 328.87 370.245C324.656 371.863 327.521 374.436 330.863 374.893C330.887 374.896 330.912 374.899 330.936 374.902C331.977 376.809 333.434 378.576 334.572 376.02C334.659 375.824 334.7 375.583 334.71 375.312C343.341 376.045 352.828 375.59 361.325 375.85C379.732 376.415 398.251 377.263 416.676 376.833C423.97 376.663 431.286 376.177 438.519 375.446C442.757 375.018 447.011 374.507 451.181 373.797C451.479 373.747 451.934 373.694 452.458 373.629C452.544 373.627 452.631 373.625 452.712 373.624C459.097 373.552 465.476 373.424 471.856 373.224C477.211 373.057 482.59 372.972 487.928 372.593C491.244 372.357 498.251 372.401 500.286 369.897C502.137 367.621 499.043 361.758 498.603 359.201C497.83 354.699 497.535 350.155 497.584 345.619" fill="#00616B"/>
<path fill-rule="evenodd" clip-rule="evenodd" d="M432.877 315.527C427.775 315.855 423.058 317.654 417.909 317.676C413.587 317.694 409.332 316.725 404.986 316.868C399.889 317.035 397.085 319.51 392.62 320.338C389.065 320.997 386.825 318.954 383.699 318.05C379.751 316.909 376.835 317.498 373.451 319.224C370.965 320.492 365.167 323.339 365.212 325.904C365.345 333.675 377.421 322.941 379.855 322.81C383.089 322.638 386.703 325.406 390.144 325.563C394.695 325.772 397.612 323.57 401.802 322.768C406.039 321.956 410.618 322.951 414.866 323.259C419.712 323.611 423.954 322.8 428.642 321.931C433.186 321.09 437.058 321.134 441.674 321.841C444.79 322.318 452.553 325.092 453.916 321.526C455.772 316.669 436.444 315.299 432.877 315.527" fill="#333A3A"/>
<path fill-rule="evenodd" clip-rule="evenodd" d="M434.43 330.348C423.976 331.109 413.458 331.777 402.956 331.991C398.408 332.084 380.922 330.621 382.473 334.96C383.802 338.68 407.597 336.338 412.443 336.055C417.794 335.743 423.136 335.306 428.46 334.8C430.347 334.621 434.903 334.807 436.235 333.619C437.504 332.485 436.878 330.164 434.43 330.348" fill="#333A3A"/>
<path fill-rule="evenodd" clip-rule="evenodd" d="M362.311 350.11C362.073 350.185 362.073 350.185 362.311 350.11ZM364.518 350.087C367.124 350.025 366.566 348.994 369.165 349.531C370.365 349.779 370.488 349.411 371.417 350.272C373.231 351.95 371.523 355.606 369.735 356.959C363.115 361.967 355.17 350.31 364.518 350.087M364.516 345.172C346.393 345.629 353.976 366.647 369.749 362.357C376.264 360.585 380.358 352.602 376.527 348.116C374.663 345.934 372.286 345.546 369.164 345.395C368.439 345.36 367.527 346.15 367.074 346.115C365.999 346.029 366.099 345.127 364.516 345.172" fill="#333A3A"/>
<path fill-rule="evenodd" clip-rule="evenodd" d="M407.854 350.83C407.531 350.755 413.577 352.074 412.915 351.558C414.327 352.66 412.429 355.266 410.832 355.721C406.965 356.823 404.795 352.309 407.854 350.83M410.539 345.13C404.864 345.733 400.485 347.507 399.709 352.245C398.994 356.618 402.929 361.046 409.137 361.132C422.667 361.317 423.08 343.816 410.539 345.13" fill="#333A3A"/>
<path fill-rule="evenodd" clip-rule="evenodd" d="M472.308 351.02C473.1 358.786 462.375 351.678 472.308 351.02ZM467.704 342.713C466.766 343.918 467.566 345.195 468.981 345.895C456.33 347.902 459.195 362.195 472.069 360.083C478.616 359.009 479.819 353.841 478.844 349.573C478.379 347.544 471.644 337.656 467.704 342.713" fill="#333A3A"/>
</g>
<g opacity="0.5">
<path fill-rule="evenodd" clip-rule="evenodd" d="M675.766 313.312C675.762 318.676 675.401 324.151 676.718 329.451C677.116 331.056 677.431 334.129 679.686 334.961C681.95 335.798 684.146 334.858 684.708 333.115C685.365 331.087 683.925 328.053 683.779 325.924C683.579 323.016 683.566 320.104 683.564 317.192C683.563 315.09 684.484 311.707 681.178 310.625C678.719 309.821 675.766 311.316 675.766 313.312" fill="#00616B"/>
<path fill-rule="evenodd" clip-rule="evenodd" d="M788.719 304.827C765.047 306.611 741.034 306.981 717.277 307.912C706.295 308.342 693.023 307.793 682.677 310.984C680.756 311.577 673.875 314.876 679.461 316.219C681.202 316.638 682.971 315.23 684.401 314.758C686.782 313.973 689.539 313.73 692.078 313.423C713.665 310.821 736.245 311.274 758.055 310.058C763.643 309.746 769.234 309.425 774.811 309.013C778.795 308.719 787.17 306.563 790.846 307.666C797.129 309.55 796.982 321.793 797.107 326.003C797.171 328.181 794.356 335.997 799.952 335.205C804.431 334.571 802.809 326.45 802.46 324.229C801.545 318.407 799.982 303.97 788.719 304.827" fill="#00616B"/>
<path fill-rule="evenodd" clip-rule="evenodd" d="M797.446 334.923C776.884 336.317 755.849 334.949 735.203 335.497C724.381 335.785 713.57 336.243 702.746 336.511C698.065 336.627 693.379 336.632 688.696 336.657C686.456 336.669 676.262 337.688 682.568 341.022C685.361 342.499 694.259 341.31 697.463 341.281C702.275 341.238 707.085 341.088 711.893 340.947C723.032 340.62 734.164 340.167 745.309 339.94C755.97 339.723 766.635 339.677 777.296 339.46C782.6 339.352 787.977 339.23 793.234 338.649C794.42 338.517 798.273 338.413 799.097 337.42C799.876 336.481 799.329 334.787 797.446 334.923" fill="#333A3A"/>
<path fill-rule="evenodd" clip-rule="evenodd" d="M696.39 323.332C696.279 323.529 696.279 323.529 696.39 323.332ZM705.293 321.3C705.618 321.404 705.618 321.404 705.293 321.3ZM704.878 321.245C709.677 324.917 702.298 329.3 697.803 325.716C693.032 321.913 701.789 321.257 704.878 321.245M699.789 315.69C683.261 317.898 689.113 334.436 704.55 332.046C711.327 330.997 715.203 325.871 712.87 320.947C711.958 319.023 709.972 316.912 707.206 316.306C705.827 316.003 704.606 316.479 703.293 316.368C702.04 316.262 701.344 315.479 699.789 315.69" fill="#00616B"/>
<path fill-rule="evenodd" clip-rule="evenodd" d="M763.043 320.344C753.076 320.368 743.107 320.685 733.142 320.827C730.085 320.871 722.229 319.844 722.216 323.461C722.203 327.327 730.954 325.899 733.866 325.847C743.751 325.67 753.661 325.345 763.507 324.638C765.993 324.46 774.603 324.768 774.594 322.229C774.585 319.538 765.051 320.344 763.043 320.344" fill="#00616B"/>
<path fill-rule="evenodd" clip-rule="evenodd" d="M786.848 345.574C762.197 346.071 737.585 346.244 712.954 347.191C703.741 347.545 694.541 347.809 685.315 347.809C683.538 347.809 679.96 347.292 678.288 348.132C673.749 350.411 678.917 352.367 681.875 352.49C702.109 353.333 722.636 351.235 742.858 350.761C754.697 350.484 766.538 350.402 778.37 349.95C781.598 349.827 784.826 349.683 788.048 349.496C789.902 349.388 794.803 349.683 796.3 348.87C802.84 345.316 789.053 345.53 786.848 345.574" fill="#333A3A"/>
<path fill-rule="evenodd" clip-rule="evenodd" d="M673.75 354.623C673.519 359.421 673.495 364.136 674.331 368.908C674.66 370.785 674.811 372.916 677.742 373.393C680.405 373.826 681.755 372.314 682.306 370.638C683.652 366.545 682.468 360.654 682.452 356.402C682.445 354.299 682.442 351.946 678.982 351.471C676.342 351.108 673.851 352.54 673.75 354.623" fill="#333A3A"/>
<path fill-rule="evenodd" clip-rule="evenodd" d="M812.977 366.191C773.075 367.769 733.225 369.147 693.294 370.415C690.179 370.514 665.988 370.316 674.445 376.65C677.057 378.606 683.788 377.281 687.166 377.157C692.243 376.969 697.322 376.826 702.399 376.632C722.527 375.863 742.708 375.655 762.821 374.792C773.89 374.317 784.933 373.574 795.944 372.606C801.181 372.146 807.683 372.193 812.588 370.652C815.111 369.86 817.835 365.997 812.977 366.191" fill="#333A3A"/>
<path fill-rule="evenodd" clip-rule="evenodd" d="M790.033 341.851C786.998 344.12 788.559 348.596 788.788 351.401C789.102 355.26 789.484 359.122 790.126 362.96C790.543 365.453 790.323 369.333 792.094 371.487C794.169 374.009 798.737 373.73 800.613 371.293C802.272 369.139 801.432 364.605 801.389 362.216C801.33 358.914 801.056 355.607 800.795 352.311C800.576 349.557 801.408 345.143 799.39 342.785C797.339 340.39 792.877 339.728 790.033 341.851" fill="#333A3A"/>
<path fill-rule="evenodd" clip-rule="evenodd" d="M698.825 359.459C698.469 359.664 698.469 359.664 698.825 359.459ZM705.914 358.792C712.527 359.791 701.834 365.587 698.454 361.609C697.927 360.987 697.652 360.223 698.499 359.683C699.273 359.19 699.759 360.063 700.489 359.828C701.748 359.424 704.571 358.754 705.914 358.792M705.002 354.033C700.487 354.301 694.279 354.511 692.044 357.909C689.042 362.473 694.177 366.942 700.117 367.637C705.833 368.305 714.367 365.928 714.825 360.923C715.194 356.887 710.081 353.724 705.002 354.033" fill="#333A3A"/>
<path fill-rule="evenodd" clip-rule="evenodd" d="M742.7 356.448C738.026 356.504 728.839 355.467 724.767 357.177C720.738 358.869 722.534 361.883 726.21 362.604C728.64 363.08 732.611 362.312 735.141 362.234C738.468 362.133 741.798 362.111 745.128 362.076C750.727 362.02 756.325 362.067 761.925 362.067C767.645 362.067 773.462 362.185 779.172 361.869C786.396 361.47 786.202 357.409 779.137 356.901C767.134 356.038 754.741 356.305 742.7 356.448" fill="#333A3A"/>
<path fill-rule="evenodd" clip-rule="evenodd" d="M730.758 401.935C730.758 403.865 733.039 401.935 733.022 401.935C733.039 401.935 730.758 400.005 730.758 401.935" fill="#333A3A"/>
<path fill-rule="evenodd" clip-rule="evenodd" d="M679.175 386.401C679.322 392.01 679.419 397.624 679.738 403.228C679.839 405 679.163 408.461 682.024 409.365C685.209 410.37 686.199 407.863 686.566 406.165C687.728 400.784 686.589 394.639 686.477 389.194C686.44 387.366 686.966 384.821 684.201 383.909C681.945 383.166 679.13 384.546 679.175 386.401" fill="#333A3A"/>
<path fill-rule="evenodd" clip-rule="evenodd" d="M802.033 386.487C802.221 386.821 802.221 386.821 802.033 386.487ZM802.301 386.43C802.454 386.478 803.073 386.673 802.301 386.43ZM741.946 381.897C730.477 382.031 719.001 382.134 707.539 382.502C702.648 382.66 697.7 382.787 692.825 383.133C689.372 383.378 680.795 383.48 678.555 385.599C673.934 389.971 683.734 388.779 685.845 388.424C689.686 387.777 693.607 387.57 697.532 387.415C706.047 387.078 714.566 386.897 723.092 386.769C746.212 386.419 769.35 386.472 792.475 386.394C794.714 386.386 798.76 385.711 800.828 386.39C802.899 387.072 802.782 388.747 802.998 390.693C803.284 393.281 801.01 398.214 802.742 400.391C805.43 403.768 809.339 400.9 809.936 398.438C810.761 395.036 809.453 390.951 808.172 387.699C806.365 383.111 803.857 382.929 797.946 382.57C791.04 382.151 784.158 381.897 777.23 381.849C765.471 381.768 753.704 381.76 741.946 381.897" fill="#333A3A"/>
<path fill-rule="evenodd" clip-rule="evenodd" d="M787.308 405.083C762.433 407.251 736.849 405.974 711.84 406.05C705.759 406.069 699.672 406.105 693.597 406.327C690.387 406.443 682.781 405.779 680.582 407.638C675.948 411.556 684.296 412.126 687.343 411.963C693.505 411.634 699.682 411.484 705.859 411.448C727.618 411.322 749.5 412.084 771.242 411.279C780.35 410.941 789.256 409.771 798.196 408.464C800.176 408.174 813.734 406.239 806.003 403.92C801.434 402.549 792.108 404.662 787.308 405.083" fill="#333A3A"/>
<path fill-rule="evenodd" clip-rule="evenodd" d="M714.678 397.911C714.505 398.078 714.505 398.078 714.678 397.911ZM714.511 397.882C714.452 398.002 714.269 398.299 714.511 397.882ZM712.945 396.363C712.982 396.398 713.13 396.54 712.945 396.363ZM712.882 396.351C713.481 396.888 713.884 397.487 714.092 398.147C708.938 399.195 706.952 396.065 712.882 396.351M712.557 396.205C712.558 396.206 713.283 396.435 712.557 396.205ZM704.09 391.541C700.755 394.66 698.001 398.295 702.16 401.857C705.878 405.042 713.36 405.453 718.079 403.327C722.94 401.135 722.52 396.523 719.129 393.512C716.946 391.574 715.176 391.628 712.008 391.311C709.851 391.096 705.92 389.837 704.09 391.541" fill="#333A3A"/>
<path fill-rule="evenodd" clip-rule="evenodd" d="M738.569 397.314C738.569 401.466 762.453 399.679 766.702 399.674C770.261 399.671 791.782 401.145 790.238 396.871C788.968 393.359 767.77 395.105 763.255 395.1C759.353 395.096 738.569 393.084 738.569 397.314" fill="#333A3A"/>
</g>
<g opacity="0.5">
<path fill-rule="evenodd" clip-rule="evenodd" d="M426.765 436.22C438.727 437.524 451.169 441.747 451.064 452.2C450.977 460.989 441.158 470.343 428.551 469.817C417.206 469.345 406.523 460.03 405.102 452.048C404.366 447.912 405.743 443.459 408.983 440.057C413.229 435.599 419.966 435.606 426.765 436.22M421.113 430.539C412.462 430.575 406.133 432.924 400.779 437.884C398.858 439.662 396.625 441.576 395.163 443.591C393.798 445.472 394.037 450.257 398.722 448.014C397.569 457.277 404.78 466.268 415.146 471.014C426.414 476.174 439.151 475.168 448.528 467.936C457.113 461.316 460.134 450.134 453.854 441.946C447.577 433.763 433.034 430.451 421.113 430.539" fill="#333A3A"/>
<path fill-rule="evenodd" clip-rule="evenodd" d="M447.057 428.057C441.518 431.105 436.461 435.118 432.26 439.188C428.154 443.167 425.44 448.135 420.508 451.604C418.017 449.568 415.099 444.067 410.131 446.249C406.008 448.06 408.663 451.174 410.671 453.219C415.856 458.499 421.614 460.624 428.264 455.407C434.304 450.67 437.734 444.35 443.381 439.339C445.858 437.141 449.685 434.959 451.657 432.532C453.445 430.332 451.234 425.752 447.057 428.057" fill="#333A3A"/>
</g>
<g opacity="0.5">
<path fill-rule="evenodd" clip-rule="evenodd" d="M656.372 97.5546C656.38 97.9701 656.388 98.361 656.4 98.7203C656.658 106.565 656.508 114.813 655.659 122.639C655.366 125.342 652.748 128.767 649.761 125.042C648.447 123.404 648.631 120.04 648.767 117.566C648.803 116.902 648.836 116.303 648.835 115.818C648.832 113.057 649.026 110.268 649.219 107.472C649.598 102.004 649.979 96.5085 648.901 91.1389C648.879 91.0303 648.859 90.9257 648.839 90.8252C648.37 88.4639 648.338 88.3007 644.88 88.3544C643.438 88.3769 641.996 88.4062 640.554 88.4354C639.136 88.4642 637.718 88.493 636.3 88.5153C634.892 88.5375 633.483 88.5579 632.075 88.5782C627.658 88.642 623.241 88.7058 618.827 88.8271C618.09 88.8475 616.715 88.977 614.981 89.1403C611.513 89.4669 606.605 89.929 602.475 89.9264C602.476 89.9397 602.477 89.953 602.478 89.9664C602.481 89.9903 602.483 90.0144 602.484 90.0388C602.53 91.7505 601.943 93.6613 601.353 95.5809C600.859 97.1885 600.363 98.8024 600.236 100.311C599.933 103.9 599.93 107.526 599.926 111.153C599.922 115.57 599.918 119.986 599.373 124.334C599.347 124.546 599.331 124.77 599.315 124.997C599.313 125.027 599.31 125.057 599.308 125.087C599.495 125.066 599.676 125.051 599.851 125.043C602.827 124.901 605.829 124.888 608.826 124.876C610.479 124.869 612.13 124.862 613.775 124.833C616.729 124.782 619.72 124.784 622.722 124.787C629.35 124.792 636.036 124.797 642.519 124.224C644.434 124.038 645.103 125.882 644.244 126.838C643.475 127.693 641.358 127.832 639.808 127.933C639.414 127.959 639.056 127.983 638.767 128.015C634.586 128.48 630.349 128.642 626.13 128.782C621.699 128.929 617.265 129.04 612.831 129.132C611.776 129.154 610.367 129.261 608.806 129.38C604.683 129.692 599.492 130.086 596.916 129.211C594.147 128.27 594.212 127.226 595.342 126.417C594.847 125.599 594.769 124.403 594.708 123.469C594.685 123.112 594.664 122.792 594.623 122.547C594.009 118.824 593.638 115.148 593.63 111.393C593.612 104.037 593.632 96.3975 596.342 89.2775C595.257 88.9207 594.602 88.3946 594.605 87.6364C594.617 83.8165 610.453 84.0108 617.981 84.1032C619.327 84.1197 620.407 84.133 621.084 84.1195C626.568 84.0119 632.052 83.9979 637.537 84.0202C638.696 84.0248 639.986 83.9679 641.322 83.9089C644.165 83.7835 647.218 83.6488 649.673 84.0771C656.123 85.2012 656.278 92.9133 656.372 97.5546Z" fill="#333A3A"/>
<path fill-rule="evenodd" clip-rule="evenodd" d="M696.711 84.9138C702.699 84.6759 708.691 84.6212 714.686 84.6046C721.035 84.5806 727.392 84.6663 733.738 84.8127L733.884 84.8161C736.696 84.8795 752.324 85.2319 745.144 88.1557C744.726 88.3262 744.254 88.4686 743.74 88.5869C744.044 89.9404 744.081 91.3376 744.032 92.0108C743.847 94.5644 743.725 97.1208 743.602 99.6771C743.519 101.41 743.436 103.142 743.334 104.874C743.052 109.658 742.782 114.443 742.563 119.229C742.536 119.817 742.577 120.585 742.623 121.442L742.623 121.442C742.776 124.274 742.981 128.068 740.932 129.471C739.135 130.702 737.906 130.455 737.079 129.619C731.935 130.74 721.37 130.376 716.058 130.192C714.778 130.148 713.803 130.114 713.282 130.115C712.351 130.115 710.62 130.202 708.435 130.312C699.339 130.771 682.359 131.627 682.324 128.261C682.321 127.937 682.461 127.647 682.724 127.387C682.003 126.835 681.355 126.025 680.939 125.013C679.444 121.382 679.303 117.464 679.192 113.699C679.036 108.382 679.034 103.059 679.032 97.7369V97.7369C679.031 95.0036 679.031 92.2707 679.009 89.539C678.037 88.5587 678.614 87.4376 679.827 86.6554C682.41 84.9909 688.822 84.9708 693.46 84.9562C694.709 84.9523 695.828 84.9488 696.711 84.9138ZM686.966 125.91C692.738 124.984 702.463 125.282 707.673 125.442C709.038 125.483 710.093 125.516 710.686 125.514C716.007 125.498 721.331 125.554 726.648 125.713C727.199 125.73 728.015 125.715 728.976 125.696C730.907 125.66 733.424 125.612 735.562 125.79C735.533 125.573 735.514 125.374 735.503 125.202C735.263 121.649 735.436 118.064 735.608 114.5C735.645 113.743 735.681 112.986 735.714 112.231C735.828 109.566 735.979 106.902 736.131 104.238C736.226 102.561 736.322 100.884 736.408 99.2061C736.445 98.4701 736.389 97.4703 736.326 96.3455C736.197 94.0577 736.039 91.2526 736.585 89.0979C734.616 89.0698 732.598 88.965 730.748 88.869C728.965 88.7764 727.337 88.6919 726.058 88.6918C724.435 88.6916 722.812 88.6879 721.189 88.6841C716.693 88.6738 712.198 88.6634 707.701 88.7302C707.275 88.7366 706.848 88.7428 706.421 88.7489C700.23 88.8386 693.987 88.929 687.847 89.5414C687.488 89.5773 687.055 89.6466 686.577 89.7306C687.249 91.8426 686.92 94.8189 686.631 97.4257C686.491 98.6918 686.36 99.8708 686.359 100.821C686.35 106.731 686.558 112.617 686.765 118.498L686.765 118.498C686.844 120.723 686.923 122.947 686.989 125.17C686.997 125.435 686.989 125.682 686.966 125.91Z" fill="#333A3A"/>
<path fill-rule="evenodd" clip-rule="evenodd" d="M621.276 128.961C617.341 130.687 619.463 137.591 620.826 139.979C623.068 143.905 627.615 146.977 632.522 149.015C642.44 153.135 656.737 152.041 664.238 159.182C664.315 159.256 666.908 161.183 667.498 158.687C667.983 156.639 663.143 153.511 661.267 152.485C655.933 149.566 649.093 148.624 642.923 147.166C636.344 145.61 629.123 142.743 626.365 137.651C625.388 135.847 627.25 126.328 621.276 128.961" fill="#00616B"/>
<path fill-rule="evenodd" clip-rule="evenodd" d="M711.237 132.28C707.631 133.027 710.016 136.752 710.01 138.618C710.003 140.945 709.012 143.381 707.102 145.238C702.257 149.947 692.771 150.653 685.659 152.003C680.495 152.985 668.14 155.088 667.657 160.332C667.117 166.187 678.024 159.061 678.946 158.769C689.141 155.962 702.331 155.419 710.2 149.239C713.448 146.688 715.368 143.283 715.673 139.769C715.845 137.79 715.874 131.329 711.237 132.28" fill="#00616B"/>
<path fill-rule="evenodd" clip-rule="evenodd" d="M636.725 184.218C636.642 173.385 650.451 166.831 662.939 164.366C677.949 161.397 691.93 169.293 693.699 180.652C695.567 192.638 683.533 202.288 667.664 202.818C653.704 203.283 636.815 195.779 636.725 184.218ZM670.256 169.575C671.068 170.404 671.8 171.726 670.165 172.447C668.592 173.135 667.806 172.307 667.015 171.475C666.515 170.948 666.013 170.42 665.31 170.271C663.485 169.885 660.553 171.326 659.033 172.166C658.416 172.507 657.538 173.241 656.512 174.099C653.245 176.831 648.475 180.819 645.839 177.387C635.325 191.018 661.538 201.219 676.443 196.061C692.814 190.395 689.627 169.683 670.256 169.575Z" fill="#333A3A"/>
<path fill-rule="evenodd" clip-rule="evenodd" d="M656.513 180.592C656.513 183.079 661.744 183.079 661.744 180.592C661.744 178.134 656.513 178.028 656.513 180.592" fill="#333A3A"/>
<path fill-rule="evenodd" clip-rule="evenodd" d="M665.715 180.125C665.715 183.171 672.126 183.171 672.126 180.125C672.126 177.114 665.715 176.985 665.715 180.125" fill="#333A3A"/>
<path fill-rule="evenodd" clip-rule="evenodd" d="M659.13 187.222C653.888 189.537 668.879 194.137 669.471 189.437C669.727 187.409 667.111 187.956 665.367 187.807C663.698 187.664 660.713 186.531 659.13 187.222" fill="#333A3A"/>
<path fill-rule="evenodd" clip-rule="evenodd" d="M656.858 203.646C657.086 209.559 656.976 215.468 658.47 221.299C658.754 222.406 658.951 226.423 660.117 227.245C662.984 229.269 663.032 225.39 663.143 223.904C663.541 218.58 662.797 213.091 662.632 207.756C662.597 206.608 663.002 204.23 662.28 203.118C661.135 201.354 656.747 200.83 656.858 203.646" fill="#00616B"/>
<path fill-rule="evenodd" clip-rule="evenodd" d="M651.25 198.852C639.758 208.535 623.933 207.822 607.99 208.67C599.567 209.118 591.049 210.038 584.271 214.129C581.118 216.032 578.4 218.415 576.574 221.132C575.775 222.319 571.988 229.171 577.676 227.546C579.693 226.969 581.679 222.438 582.983 221.098C585.468 218.545 588.648 216.438 592.462 215.068C599.819 212.425 608.604 212.47 616.582 212.135C624.92 211.785 633.871 211.457 641.536 208.735C645.142 207.454 648.525 205.857 651.427 203.798C652.464 203.062 654.688 201.813 654.853 200.688C655.043 199.402 653.397 197.047 651.25 198.852" fill="#00616B"/>
<path fill-rule="evenodd" clip-rule="evenodd" d="M593.236 228.574C582.441 228.845 571.659 229.173 560.879 229.685C558.67 229.79 551.305 229.455 553.181 232.854C554.684 235.578 563.667 233.776 566.638 233.644C577.871 233.143 589.151 232.969 600.36 232.211C602.878 232.04 614.26 232.108 609.56 228.758C607.324 227.163 596.325 228.495 593.236 228.574" fill="#333A3A"/>
<path fill-rule="evenodd" clip-rule="evenodd" d="M546.326 232.483C542.923 235.839 544.487 243.993 544.744 248.027C544.993 251.935 543.982 259.082 550.778 259.688C548.62 259.476 552.416 259.786 553.033 259.811C554.413 259.867 555.799 259.885 557.181 259.896C560.373 259.922 563.566 259.89 566.757 259.842C573.986 259.734 581.234 259.576 588.454 259.276C591.489 259.15 607.953 259.255 608.605 256.888C609.437 253.864 593.652 255.575 590.826 255.671C583.944 255.908 577.052 255.958 570.164 256.026C566.75 256.06 563.332 256.085 559.918 256.035C558.509 256.014 552.926 256.449 552.069 255.743C551.339 255.141 551.909 249.615 551.893 248.77C551.843 246.014 551.847 243.252 551.978 240.498C552.066 238.643 553.401 235.115 552.313 233.373C551.255 231.679 548.17 231.101 546.326 232.483" fill="#333A3A"/>
<path fill-rule="evenodd" clip-rule="evenodd" d="M601.911 232.641C602.108 238.779 602.169 245.041 604.1 251.044C604.742 253.042 605.643 257.162 608.316 258.196C611.122 259.282 613.544 257.732 613.728 255.645C613.958 253.021 612.087 249.576 611.703 246.884C611.255 243.742 610.994 240.598 610.841 237.441C610.725 235.067 611.686 231.508 608.671 229.977C605.964 228.602 601.823 229.987 601.911 232.641" fill="#333A3A"/>
<path fill-rule="evenodd" clip-rule="evenodd" d="M623.393 231.142C620.035 233.653 621.536 241.603 621.956 244.829C622.263 247.192 625.708 258.816 630.87 252.754C633.153 250.073 630.252 242.983 630.273 239.857C630.286 237.865 631.225 235.348 630.772 233.434C630.173 230.906 626.438 228.859 623.393 231.142" fill="#333A3A"/>
<path fill-rule="evenodd" clip-rule="evenodd" d="M646.638 229.069C656.723 228.288 666.819 227.702 676.959 227.63C677.446 227.627 677.958 227.622 678.49 227.617C685.44 227.551 695.883 227.451 700.56 231.369C703.108 233.504 704.263 236.803 705.269 239.679C705.456 240.216 705.639 240.738 705.824 241.234C705.983 241.659 706.189 242.143 706.411 242.666C707.462 245.135 708.883 248.477 707.442 250.545C706.652 251.679 705.379 252.647 703.448 252.245C702.999 252.151 702.647 252.032 702.37 251.891C703.108 252.492 703.435 253.347 702.955 254.184C702.026 255.803 699.092 255.837 696.78 255.864C696.22 255.871 695.696 255.877 695.246 255.905C687.547 256.387 679.812 256.708 672.086 256.759C668.407 256.783 664.728 256.761 661.049 256.738C657.262 256.715 653.475 256.692 649.688 256.72C646.94 256.74 644.14 256.936 641.34 257.132C637.805 257.38 634.268 257.628 630.83 257.522C628.257 257.443 625.511 256.81 626.163 254.314C626.694 252.277 629.249 252.099 631.538 251.94C631.737 251.926 631.934 251.912 632.128 251.898C639.417 251.34 646.709 251.143 654.035 251.163C669.425 251.203 684.803 251.143 700.193 251.083C700.824 251.122 701.418 251.303 701.908 251.578C701.357 251.073 701.367 250.402 701.379 249.687C701.384 249.363 701.389 249.031 701.343 248.7C701.249 248.036 701.162 247.375 701.076 246.715C700.792 244.534 700.509 242.368 699.955 240.174C699.872 239.843 699.791 239.479 699.706 239.093C699.202 236.815 698.534 233.797 696.122 232.567C693.696 231.331 688.94 231.39 685.233 231.436C684.232 231.449 683.308 231.46 682.527 231.445C672.635 231.254 662.686 231.781 652.839 232.453C652.083 232.505 651.326 232.554 650.568 232.604C646.821 232.849 643.056 233.095 639.363 233.598C638.688 233.691 637.656 233.961 636.472 234.271C633.322 235.096 629.098 236.202 627.663 234.984C622.908 230.947 643.802 229.289 646.638 229.069Z" fill="#333A3A"/>
<path fill-rule="evenodd" clip-rule="evenodd" d="M753.932 219.876C754.37 220.3 754.37 220.3 753.932 219.876ZM685.686 194.865C679.562 197.568 690.897 205.499 693.785 206.725C700.283 209.486 709.212 209.902 716.468 210.678C725.651 211.661 735.645 212.023 744.469 214.282C748.23 215.245 750.62 216.747 753.082 219.056C754.329 220.225 757.333 225.267 760.069 224.074C765.577 221.67 750.735 211.583 747.465 210.498C740.03 208.032 731.242 207.342 723.294 206.385C715.902 205.494 708.352 204.832 701.143 203.262C697.179 202.399 694.362 201.007 692.077 198.342C690.653 196.681 689.485 193.197 685.686 194.865" fill="#00616B"/>
<path fill-rule="evenodd" clip-rule="evenodd" d="M779.578 225.845C772.517 225.963 765.469 226.371 758.422 226.778C754.469 227.007 750.516 227.236 746.562 227.413C745.326 227.469 744.088 227.519 742.849 227.569C739.366 227.71 735.877 227.851 732.411 228.114C731.884 228.154 731.274 228.191 730.609 228.232C727.665 228.414 723.651 228.661 721.085 229.468C718.733 228.131 715.102 229.266 715.045 231.647C714.948 235.984 715.001 240.243 715.706 244.552C715.869 245.553 716.711 250.617 718.543 253.254C717.89 255.745 720.717 256.443 723.349 256.634C733.541 257.372 744.228 256.799 754.77 256.234C760.133 255.946 765.458 255.66 770.661 255.55C772.391 255.514 774.144 255.499 775.906 255.484C781.659 255.436 787.523 255.386 793.092 254.569C793.316 254.537 793.557 254.504 793.808 254.471C796.01 254.174 799.047 253.765 799.278 251.946C799.417 250.855 798.597 249.856 797.225 249.714C797.319 248.804 797.167 247.811 797.055 247.081L797.055 247.08C797.029 246.911 797.005 246.756 796.987 246.619C796.653 244.088 795.814 241.575 794.985 239.093L794.984 239.092C794.798 238.534 794.612 237.979 794.433 237.425C794.235 236.81 794.051 236.08 793.852 235.293C793.152 232.513 792.272 229.02 789.932 227.398C787.477 225.697 783.482 225.773 780.281 225.833C780.042 225.837 779.807 225.842 779.578 225.845ZM792.003 249.985C791.166 248.34 790.921 246.115 790.688 244C790.542 242.672 790.401 241.388 790.121 240.318C789.91 239.515 789.738 238.668 789.563 237.807L789.563 237.807C789.137 235.717 788.695 233.545 787.65 231.713C786.251 229.26 785.005 229.354 782.058 229.576C781.51 229.617 780.903 229.663 780.225 229.697C777.222 229.85 774.221 230.045 771.221 230.24L771.221 230.24C769.781 230.334 768.342 230.427 766.902 230.516C760.742 230.897 754.578 231.189 748.414 231.481L748.414 231.481L748.413 231.481C744.812 231.652 741.21 231.822 737.609 232.011C734.782 232.158 732.024 232.562 729.276 232.964L729.276 232.964L729.276 232.964C727.1 233.282 724.931 233.599 722.74 233.787C722.709 234.349 722.646 234.913 722.586 235.45C722.504 236.182 722.428 236.864 722.445 237.422C722.516 239.899 722.808 242.36 723.099 244.825L723.099 244.825L723.099 244.825C723.144 245.204 723.189 245.584 723.233 245.963C723.286 246.417 723.416 247.002 723.56 247.649L723.56 247.649C723.784 248.652 724.041 249.807 724.099 250.87C724.365 250.869 724.63 250.87 724.891 250.87C725.228 250.871 725.559 250.872 725.876 250.868C733.638 250.766 741.395 250.589 749.152 250.366C750.142 250.337 751.132 250.308 752.122 250.279C759.043 250.077 765.964 249.875 772.89 249.815C775.642 249.792 778.43 249.856 781.226 249.921C784.825 250.005 788.436 250.089 792.003 249.985Z" fill="#333A3A"/>
</g>
<path fill-rule="evenodd" clip-rule="evenodd" d="M461.662 132.312C454.963 138.852 447.828 142.929 444.01 142.848C434.436 142.644 425.839 109.815 429.762 95.1532C433.685 80.4915 468.258 66.3722 476.134 91.7414C478.868 100.546 476.988 109.42 472.967 117.246L493.842 161.321L464.914 168.124L461.662 132.312Z" fill="#735A42"/>
<path fill-rule="evenodd" clip-rule="evenodd" d="M442.721 76.2705C446.387 74.7486 456.551 71.9044 458.445 71.4594C459.654 71.1749 461.03 71.143 461.486 69.8636C461.859 68.8159 461.282 67.3279 461.209 66.2311C461.124 64.9569 461.128 63.6785 461.136 62.4023C461.159 58.7709 461.648 55.2064 462.685 51.7238C464.631 45.1897 468.406 39.5424 473.893 35.4824C479.952 30.9993 487.424 28.5419 494.813 27.4244C502.72 26.2284 510.346 27.138 518.239 27.8255C525.761 28.4806 533.285 27.6651 540.323 24.8262C547.414 21.966 552.035 16.6714 557.35 11.4276C562.791 6.05933 569.455 1.81805 577.102 0.634415C584.24 -0.470286 591.381 0.904694 598.087 3.40802C604.361 5.75019 609.86 9.05025 613.827 14.5819C618.095 20.5322 619.793 27.7659 616.693 34.6406C612.2 44.6055 600.687 49.6169 590.63 51.753C584.813 52.9889 578.881 53.2692 572.965 52.6325C565.075 51.7831 557.756 48.9199 550.11 46.9985C546.522 46.097 542.896 45.5163 539.199 45.353C535.612 45.1941 532.197 45.5376 529.629 48.2858C526.913 51.193 524.523 53.9836 521.153 56.196C517.921 58.3186 514.346 59.9214 510.572 60.7782C503.23 62.4453 495.467 61.8609 487.989 62.0053C481.891 62.1234 475.388 62.3411 469.752 64.9318C467.4 66.0129 464.036 67.8942 463.747 70.6704C479.399 69.8606 489.661 87.0395 488.634 101.664C488.08 109.557 476.372 121.385 470.125 118.773C466.166 117.119 467.463 113.42 468.293 110.984C469.881 106.319 469.523 100.891 464.149 99.168C459.513 97.6816 456.606 104.484 456.524 104.497C455.387 104.671 444.458 101.485 435.94 95.0869C429.475 97.0175 427.463 92.9284 428.197 89.0248C428.931 85.1212 437.656 78.3738 442.721 76.2705Z" fill="#8A8B4D"/>
<path fill-rule="evenodd" clip-rule="evenodd" d="M569.897 254.416L492.026 398.35L434.223 519.687L420.671 520.272L514.922 256.789L569.897 254.416Z" fill="#735A42"/>
<path fill-rule="evenodd" clip-rule="evenodd" d="M439.343 512.599C440.391 512.076 441.683 512.498 442.134 513.579C443.061 515.803 444.41 519.349 444.496 521.343C444.628 524.398 443.863 530.303 443.863 530.303C440.318 530.456 380.158 533.052 380.158 533.052C380.158 533.052 377.321 524.95 382.642 524.065C387.964 523.179 391.48 522.499 391.48 522.499L420.64 507.961C421.144 507.71 421.756 507.924 421.993 508.436L424.152 513.092C424.152 513.092 429.205 515.189 432.301 515.056C434.268 514.971 437.354 513.593 439.343 512.599Z" fill="#E4E4E4"/>
<path fill-rule="evenodd" clip-rule="evenodd" d="M450.879 499.937L424.402 493.159C424.402 493.159 439.362 441.069 461.629 378.328C483.895 315.587 510.036 256.999 510.036 256.999L583.854 253.813C583.854 253.813 555.17 327.735 522.089 388.563C489.007 449.392 450.879 499.937 450.879 499.937Z" fill="#DB2721"/>
<path fill-rule="evenodd" clip-rule="evenodd" d="M575.413 254.178C585.462 303.143 603.459 365.478 604.984 367.36C606.001 368.614 641.105 378.716 710.297 397.665L707.885 409.743C625.995 401.513 582.719 394.253 578.059 387.964C571.068 378.531 534.944 303.183 520.2 256.561L575.413 254.178Z" fill="#735A42"/>
<path fill-rule="evenodd" clip-rule="evenodd" d="M685.861 388.37L681.536 407.84C620.896 415.806 583.433 413.558 569.147 401.097C554.861 388.635 537.115 340.518 515.91 256.746L586.3 253.708C600.411 322.447 608.186 358.24 609.626 361.09C611.065 363.939 636.477 373.032 685.861 388.37Z" fill="#FF4133"/>
<path fill-rule="evenodd" clip-rule="evenodd" d="M704.996 395.499C704.662 394.377 705.302 393.177 706.445 392.921C708.796 392.394 712.523 391.682 714.501 391.943C717.533 392.344 723.215 394.123 723.215 394.123C722.751 397.64 714.861 457.337 714.861 457.337C714.861 457.337 706.389 458.724 706.441 453.33C706.493 447.935 706.434 444.354 706.434 444.354L697.181 413.113C697.021 412.573 697.338 412.007 697.883 411.863L702.843 410.545C702.843 410.545 705.786 405.933 706.192 402.861C706.45 400.909 705.629 397.631 704.996 395.499Z" fill="#E4E4E4"/>
<path fill-rule="evenodd" clip-rule="evenodd" d="M347.88 181.148L397.603 173.389L395.327 197.164L352.013 193.464C335.778 200.072 327.577 202.084 327.408 199.498C327.266 197.319 328.86 196.174 330.328 195.119C331.472 194.297 332.54 193.53 332.651 192.372C332.904 189.727 326.016 186.448 319.345 183.617C312.675 180.785 316.029 178.901 318.309 178.294C326.895 177.771 336.752 178.722 347.88 181.148ZM414.263 292.426L438.039 248.098L455.675 264.196L426.602 296.527C422.097 313.447 418.76 321.198 416.592 319.78C414.763 318.584 414.809 316.624 414.851 314.819C414.884 313.413 414.914 312.101 414.055 311.317C412.093 309.525 405.318 313.051 399.033 316.671C392.747 320.291 393.263 316.484 394.153 314.301C398.911 307.137 405.614 299.845 414.263 292.426Z" fill="#735A42"/>
<path fill-rule="evenodd" clip-rule="evenodd" d="M460.351 148.665C458.154 195.294 442.926 237.512 415.274 287.052L439.609 297.296C477.99 257.685 497.622 235.472 492.957 194.639C491.787 184.391 480.501 155.333 475.267 139.708L460.351 148.665Z" fill="#2026A2"/>
<path fill-rule="evenodd" clip-rule="evenodd" d="M575.162 245.634L486.807 287.872C486.807 287.872 473.136 182.125 457.504 147.753C456.973 146.584 458.14 143.521 459.215 143.335C471.01 141.296 480.413 130.509 480.413 130.509C517.435 154.123 544.471 192.063 575.162 245.634Z" fill="#F2F2F2"/>
<path fill-rule="evenodd" clip-rule="evenodd" d="M482.776 192.408C497.224 258.094 520.983 306.159 551.449 291.595L598.56 269.074C582.047 215.302 529.111 155.107 494.099 128.718C492.762 127.71 490.072 125.892 486.581 127.561L472.892 134.105C472.894 134.126 472.897 134.147 472.899 134.168C468.796 136.171 464.332 138.489 459.497 141.001C434.606 153.929 399.9 171.956 354.139 178.209L360.617 203.782C407.425 209.654 452.207 210.129 482.776 192.408Z" fill="#1F28CF"/>
<path fill-rule="evenodd" clip-rule="evenodd" d="M224.443 345.656C228.524 364.678 240.633 378.613 256.396 388.874L310.951 360.439C294.496 342.635 285.065 327.049 282.48 313.626C267.956 303.937 253.112 297.765 237.858 296.106C229.798 309.752 225.203 326.17 224.443 345.656V345.656Z" fill="black" stroke="black" stroke-width="0.0555585" stroke-miterlimit="2.61313" stroke-linejoin="round"/>
<path fill-rule="evenodd" clip-rule="evenodd" d="M224.443 345.656C228.524 364.678 240.633 378.613 256.396 388.874L310.951 360.439C294.496 342.635 285.065 327.049 282.48 313.626C267.956 303.937 253.112 297.765 237.858 296.106C229.798 309.752 225.203 326.17 224.443 345.656V345.656Z" fill="#BFBCBC"/>
<path fill-rule="evenodd" clip-rule="evenodd" d="M239.776 363.72C239.776 363.72 217.109 332.574 220.893 281.867C221.011 280.293 220.931 277.562 222.201 276.682L265.236 246.826C265.236 246.826 259.487 302.398 278.651 326.215C297.814 350.032 267.426 371.933 267.426 371.933L239.777 363.72L239.776 363.72Z" fill="#FE2F5B"/>
<path fill-rule="evenodd" clip-rule="evenodd" d="M224.443 345.649C237.401 358.346 250.359 364.345 263.317 367.549C262.264 351.223 268.933 333.184 282.48 313.619C285.065 327.043 294.496 342.628 310.951 360.431L256.396 388.867C240.633 378.606 228.524 364.671 224.443 345.649V345.649ZM264.28 374.337C264.034 373.106 262.944 366.842 263.237 362.415L264.28 374.337Z" fill="#FEFEFE"/>
<path d="M264.28 374.337C264.034 373.106 262.944 366.842 263.237 362.415M224.443 345.649C237.401 358.346 250.359 364.345 263.317 367.549C262.264 351.223 268.933 333.184 282.48 313.619C285.065 327.043 294.496 342.628 310.951 360.431L256.396 388.867C240.633 378.606 228.524 364.671 224.443 345.649V345.649Z" stroke="black" stroke-width="2" stroke-miterlimit="2.61313" stroke-linecap="round" stroke-linejoin="round"/>
<path d="M235.369 340.155C235.369 340.155 245.842 330.726 261.863 323.295" stroke="black" stroke-width="2" stroke-miterlimit="2.61313" stroke-linecap="round" stroke-linejoin="round"/>
<path d="M240.842 346.861C240.842 346.861 249.172 339.36 261.917 333.45" stroke="black" stroke-width="2" stroke-miterlimit="2.61313" stroke-linecap="round" stroke-linejoin="round"/>
<path d="M249.283 351.093C249.283 351.093 254.281 346.592 261.928 343.046" stroke="black" stroke-width="2" stroke-miterlimit="2.61313" stroke-linecap="round" stroke-linejoin="round"/>
<path fill-rule="evenodd" clip-rule="evenodd" d="M239.039 294.864C239.032 294.788 239.026 294.71 239.019 294.632C239.014 294.576 239.009 294.519 239.003 294.461C237.552 293.638 236.72 292.431 236.076 290.633C235.283 288.417 235.723 285.788 236.726 283.711C240.918 275.036 252.078 278.41 250.582 287.948C250.387 289.192 249.998 290.36 249.276 291.401C249.053 291.724 248.816 291.976 248.583 292.233C250.2 292.034 251.856 292.128 253.17 293.259C254.392 294.312 256.381 297.505 256.93 299.039C257.441 300.465 257.669 302.557 257.676 304.08C257.686 306.282 256.685 308.049 254.945 309.353C254.024 310.042 252.765 310.673 251.74 311.203C250.204 311.995 248.645 312.75 247.081 313.483C245.451 314.247 243.807 314.994 242.148 315.69C241.11 316.126 239.646 316.769 238.545 316.956C236.14 317.362 234 317.071 232.447 314.985C231.647 313.912 230.785 311.796 230.32 310.497C229.536 308.308 230.281 302.012 231.411 299.97C232.573 297.871 236.158 296.052 239.039 294.865V294.864Z" fill="#FEFEFE"/>
<path fill-rule="evenodd" clip-rule="evenodd" d="M236.633 299.487L235.719 299.998C233.558 300.829 233.483 302.837 233.232 304.964C232.978 307.108 232.501 308.683 233.958 311.446C234.829 313.098 235.099 315.019 238.989 313.848C239.813 313.6 240.229 313.318 240.698 313.073L245.927 310.807C248.634 309.377 253.401 307.581 254.499 305.541C254.959 304.685 254.744 303.528 254.638 302.448C254.355 299.584 253.59 298.455 251.999 296.336C251.118 295.163 250.893 295.002 249.409 295.134C248.333 295.229 247.021 295.456 246.017 295.743C244.663 296.643 242.453 297.39 242.53 297.283L242.341 296.77L236.634 299.488L236.633 299.487Z" fill="url(#paint0_linear)"/>
<path fill-rule="evenodd" clip-rule="evenodd" d="M238.779 288.787L238.983 290.027C239.71 292.013 240.722 291.828 241.624 292.538L242.892 292.257L245.481 291.328C246.95 289.865 247.813 288.55 247.776 286.27C247.759 285.234 247.567 284.165 246.819 283.185C243.535 278.879 237.665 284.522 238.78 288.786L238.779 288.787Z" fill="url(#paint1_radial)"/>
<path fill-rule="evenodd" clip-rule="evenodd" d="M243.007 303.089L243.527 302.826C243.202 301.67 243.521 301.532 244.119 300.949C244.887 300.201 244.449 300.476 244.768 299.693C245.467 297.976 244.801 299.041 245.135 297.999L245.36 297.574L245.099 297.646L244.682 297.868C244.049 298.168 243.493 298.543 243.003 298.127C242.604 298.06 242.978 298.366 242.658 297.899C242.492 297.657 242.538 297.607 242.503 297.284C239.73 299.293 240.727 297.891 240.009 301.254L239.852 301.796C239.69 302.465 239.64 302 239.798 302.819C240.649 303.482 241.763 303.572 243.007 303.089V303.089ZM245.36 297.574L245.135 297.999C244.801 299.041 245.467 297.977 244.768 299.694C244.449 300.477 244.887 300.202 244.119 300.95C243.521 301.533 243.202 301.67 243.527 302.826L243.007 303.09C244.082 303.339 246.283 302.117 247.18 301.598C251.061 299.355 249.434 298.524 248.524 297.242L248.131 296.681C247.272 295.626 246.787 296.641 245.792 295.876L245.785 296.398C245.782 297.409 245.853 297.166 245.36 297.574H245.36Z" fill="url(#paint2_linear)"/>
<path fill-rule="evenodd" clip-rule="evenodd" d="M242.312 296.764L242.502 297.277C242.537 297.6 242.491 297.65 242.657 297.892C242.977 298.359 242.603 298.053 243.002 298.119L243.965 297.888L243.54 292.313L242.891 292.248L241.623 292.53C242.14 293.974 241.846 295.368 242.313 296.764L242.312 296.764ZM243.539 292.312L243.96 292.127L244.708 292.024C245.02 293.688 244.964 295.04 245.12 296.123C245.27 297.162 245.447 296.881 245.098 297.639L245.359 297.566C245.851 297.159 245.781 297.402 245.784 296.39L245.79 295.869L245.989 295.738C245.62 294.708 245.41 292.151 245.479 291.319L242.89 292.248L243.539 292.312H243.539ZM243.002 298.119C243.493 298.536 244.048 298.161 244.681 297.861C244.813 297.204 244.272 292.549 243.96 292.128L243.539 292.313L243.965 297.888L243.002 298.119H243.002ZM244.681 297.861L245.098 297.639C245.448 296.881 245.27 297.162 245.12 296.123C244.964 295.04 245.02 293.688 244.708 292.024L243.96 292.127C244.272 292.549 244.813 297.204 244.681 297.86V297.861Z" fill="url(#paint3_linear)"/>
<path fill-rule="evenodd" clip-rule="evenodd" d="M234.847 301.994C234.882 302.034 234.92 302.073 234.962 302.11C235.921 302.284 237.127 302.018 238.142 301.301C238.934 300.741 239.304 300.186 239.005 299.294C238.156 299.065 237.647 299.188 236.589 299.484C235.629 299.768 234.695 301.028 234.847 301.994H234.847Z" fill="url(#paint4_linear)"/>
<defs>
<linearGradient id="paint0_linear" x1="239.594" y1="304.37" x2="242.054" y2="309.819" gradientUnits="userSpaceOnUse">
<stop stop-color="#3A3D49"/>
<stop offset="0.541176" stop-color="#434C57"/>
<stop offset="1" stop-color="#3A3D49"/>
</linearGradient>
<radialGradient id="paint1_radial" cx="0" cy="0" r="1" gradientUnits="userSpaceOnUse" gradientTransform="translate(241.578 285.994) rotate(12.2648) scale(4.13698 4.93302)">
<stop stop-color="#F7000C"/>
<stop offset="1" stop-color="#F10009"/>
</radialGradient>
<linearGradient id="paint2_linear" x1="245.806" y1="299.891" x2="236.49" y2="304.46" gradientUnits="userSpaceOnUse">
<stop stop-color="#5E6E75"/>
<stop offset="1" stop-color="#6A7C84"/>
</linearGradient>
<linearGradient id="paint3_linear" x1="244.336" y1="293.789" x2="246.86" y2="293.116" gradientUnits="userSpaceOnUse">
<stop stop-color="#CBD4D9"/>
<stop offset="1" stop-color="#879196"/>
</linearGradient>
<linearGradient id="paint4_linear" x1="238.477" y1="299.75" x2="235.308" y2="301.67" gradientUnits="userSpaceOnUse">
<stop stop-color="#F10009"/>
<stop offset="1" stop-color="#D40001"/>
</linearGradient>
</defs>
</svg>
