<svg width="25" height="26" viewBox="0 0 25 26" fill="none" xmlns="http://www.w3.org/2000/svg">
<path fill-rule="evenodd" clip-rule="evenodd" d="M0.522779 12.0328V13.913C0.522779 17.1362 0.356093 20.8071 1.93961 23.0454C3.52313 25.2837 5.52337 26 9.10712 26H16.1913C18.7749 26 20.9418 25.7314 22.7754 23.8512C22.8587 23.7617 22.9421 23.6721 23.0254 23.5826C24.6089 21.5233 24.7756 19.4641 24.7756 16.778V9.34676C24.7756 6.12355 24.3589 3.25847 21.8586 1.37827C20.7752 0.572467 19.4417 0.214332 17.8581 0.124799C15.7746 -0.0542684 8.77375 -0.0542683 6.77351 0.214332C5.52337 0.393399 4.02319 0.841067 3.10642 1.7364C2.93973 1.91547 2.85639 2.005 2.6897 2.09454C1.77293 2.98987 1.02284 4.33288 0.689465 6.21308C0.356093 8.00375 0.439436 10.4212 0.439436 12.2118L0.522779 12.0328ZM2.6897 11.6746C2.6897 13.7339 2.60636 17.1362 2.77304 19.0164C3.10642 22.0605 4.68993 23.4035 7.35691 23.6721C9.10712 23.8512 16.358 23.8512 18.1082 23.6721C19.6083 23.4931 20.6085 23.0454 21.3586 22.2396C22.192 21.2547 22.5254 20.0908 22.6087 18.6582C22.7754 16.6885 22.7754 9.61536 22.6087 7.55609C22.5254 6.12355 22.192 4.95961 21.3586 3.97474C20.6918 3.16894 19.6083 2.63174 18.1082 2.54221C16.358 2.36314 9.2738 2.36314 7.44026 2.54221C5.94008 2.63174 5.02331 3.07941 4.18988 3.88521C3.43979 4.60148 2.93973 5.76541 2.85639 7.19795C2.6897 8.72002 2.77304 10.3316 2.77304 11.8537L2.6897 11.6746ZM12.0241 6.39215C10.774 6.57122 9.60718 7.10842 8.6904 7.91422C7.27357 9.25722 6.19011 11.3165 6.44014 13.8234C6.77351 17.3152 9.60718 20.1803 13.2743 19.7326C16.4413 19.3745 19.1916 16.2408 18.7749 12.3909C18.6082 10.9584 18.1082 9.88396 17.3581 8.80955C16.7747 7.91422 15.6912 7.10842 14.6078 6.75028C13.7743 6.48168 12.8576 6.30261 11.8574 6.39215H12.0241ZM12.1075 8.72002C10.0239 9.07816 8.27369 11.0479 8.6904 13.6444C9.02378 15.7932 10.8573 17.6734 13.2743 17.3152C15.2745 17.0466 17.1081 14.9874 16.6913 12.3909C16.358 10.2421 14.5244 8.27235 12.1075 8.63049V8.72002ZM18.9416 4.51194C18.1915 4.60148 17.6081 5.31775 17.6915 6.21308C17.7748 7.01888 18.4415 7.73515 19.3583 7.55609C20.1084 7.46655 20.6918 6.75028 20.6085 5.85495C20.5251 5.04915 19.8584 4.42241 19.0249 4.51194H18.9416Z" fill="white"/>
</svg>
