<svg width="20" height="17" viewBox="0 0 20 17" fill="none" xmlns="http://www.w3.org/2000/svg">
<path d="M19.6882 2.21994C18.9639 2.54576 18.1854 2.76519 17.3683 2.8641C18.2026 2.35792 18.8433 1.55584 19.1443 0.600001C18.3642 1.06878 17.4996 1.40956 16.5791 1.59324C15.8433 0.797818 14.7924 0.300781 13.6308 0.300781C11.0229 0.300781 9.10663 2.76602 9.69563 5.32518C6.33961 5.15479 3.36341 3.5257 1.37079 1.04966C0.312551 2.88903 0.821984 5.29526 2.62018 6.51375C1.95898 6.49214 1.33552 6.30845 0.791631 6.00175C0.747332 7.89764 2.08859 9.67134 4.03117 10.0661C3.46267 10.2224 2.84003 10.259 2.20672 10.136C2.72026 11.7617 4.21164 12.9445 5.9803 12.9777C4.28219 14.3267 2.14274 14.9293 0 14.6733C1.78753 15.8344 3.9114 16.5118 6.19195 16.5118C13.6915 16.5118 17.9286 10.0944 17.6726 4.33858C18.4618 3.76092 19.1468 3.0403 19.6882 2.21994Z" fill="white"/>
</svg>
